<svg xmlns="http://www.w3.org/2000/svg" width="54.741" height="49.558" viewBox="0 0 54.741 49.558"><defs><style>.a{fill:#fff;}</style></defs><g transform="translate(0 -24.24)"><g transform="translate(0 24.24)"><path class="a" d="M392.345,120.5a.8.8,0,0,0,.8-.8V111.92a.8.8,0,0,0-.8-.8h-1.62a.8.8,0,1,0,0,1.6h.818V119.7A.8.8,0,0,0,392.345,120.5Z" transform="translate(-348.234 -101.829)"/><path class="a" d="M199.4,120.5a.8.8,0,0,0,.8-.8V111.92a.8.8,0,0,0-.8-.8h-1.62a.8.8,0,0,0,0,1.6h.818V119.7A.8.8,0,0,0,199.4,120.5Z" transform="translate(-175.921 -101.829)"/><path class="a" d="M323.112,114.079a2.962,2.962,0,1,0-5.925,0v3.455a2.962,2.962,0,1,0,5.925,0Zm-1.6,3.455a1.359,1.359,0,1,1-2.717,0v-3.455a1.359,1.359,0,1,1,2.717,0Z" transform="translate(-283.275 -101.828)"/><path class="a" d="M247.417,111.118a2.966,2.966,0,0,0-2.962,2.962v3.455a2.962,2.962,0,0,0,5.925,0V114.08A2.966,2.966,0,0,0,247.417,111.118Zm1.359,6.418a1.359,1.359,0,1,1-2.717,0V114.08a1.359,1.359,0,1,1,2.717,0Z" transform="translate(-218.319 -101.829)"/><path class="a" d="M79.194,111.118h-1.62a.8.8,0,1,0,0,1.6h.818V119.7a.8.8,0,0,0,1.6,0V111.92A.8.8,0,0,0,79.194,111.118Z" transform="translate(-68.564 -101.829)"/><path class="a" d="M130.17,114.079a2.962,2.962,0,0,0-5.925,0v3.455a2.962,2.962,0,0,0,5.925,0Zm-1.6,3.455a1.359,1.359,0,0,1-2.717,0v-3.455a1.359,1.359,0,0,1,2.717,0Z" transform="translate(-110.961 -101.828)"/><path class="a" d="M339.812,225.555a.8.8,0,0,0,.8-.8v-7.776a.8.8,0,0,0-.8-.8h-1.62a.8.8,0,0,0,0,1.6h.818v6.974A.8.8,0,0,0,339.812,225.555Z" transform="translate(-301.318 -195.654)"/><path class="a" d="M146.872,225.555a.8.8,0,0,0,.8-.8v-7.776a.8.8,0,0,0-.8-.8h-1.62a.8.8,0,0,0,0,1.6h.818v6.974A.8.8,0,0,0,146.872,225.555Z" transform="translate(-129.006 -195.654)"/><path class="a" d="M267.62,216.175a2.966,2.966,0,0,0-2.962,2.962v3.455a2.962,2.962,0,1,0,5.925,0v-3.455A2.966,2.966,0,0,0,267.62,216.175Zm1.359,6.418a1.359,1.359,0,1,1-2.717,0v-3.455a1.359,1.359,0,1,1,2.717,0Z" transform="translate(-236.362 -195.654)"/><path class="a" d="M191.918,222.592a2.962,2.962,0,0,0,5.925,0v-3.455a2.962,2.962,0,0,0-5.925,0Zm1.6-3.455a1.359,1.359,0,1,1,2.717,0v3.455a1.359,1.359,0,0,1-2.717,0Z" transform="translate(-171.399 -195.653)"/><path class="a" d="M74.679,216.175a2.966,2.966,0,0,0-2.962,2.962v3.455a2.962,2.962,0,1,0,5.925,0v-3.455A2.966,2.966,0,0,0,74.679,216.175Zm1.359,6.418a1.359,1.359,0,1,1-2.717,0v-3.455a1.359,1.359,0,0,1,2.717,0Z" transform="translate(-64.049 -195.654)"/><path class="a" d="M384.868,222.592a2.962,2.962,0,0,0,5.925,0v-3.455a2.962,2.962,0,0,0-5.925,0Zm1.6-3.455a1.359,1.359,0,1,1,2.717,0v3.455a1.359,1.359,0,0,1-2.717,0Z" transform="translate(-343.719 -195.653)"/><path class="a" d="M36.444,56.57H33.132a.8.8,0,0,0-.8.8V88.045a.8.8,0,0,0,.8.8H79.356a.8.8,0,0,0,.8-.8V57.372a.8.8,0,0,0-.8-.8H40.186a.8.8,0,0,0,0,1.6H78.554V87.243H33.934V58.174h2.51a.8.8,0,0,0,0-1.6Z" transform="translate(-28.873 -53.113)"/><path class="a" d="M51.78,24.24H2.962A2.965,2.965,0,0,0,0,27.2V60.468a2.965,2.965,0,0,0,2.962,2.962H20.17l-.829,5.308H17.435a.8.8,0,0,0-.8.8V73a.8.8,0,0,0,.8.8H37.306a.8.8,0,0,0,.8-.8V69.539a.8.8,0,0,0-.8-.8H35.4l-.829-5.308h8.256a.8.8,0,1,0,0-1.6H2.962A1.359,1.359,0,0,1,1.6,60.467V27.2a1.36,1.36,0,0,1,1.358-1.359H51.78A1.36,1.36,0,0,1,53.137,27.2V60.467a1.359,1.359,0,0,1-1.358,1.358H46.57a.8.8,0,1,0,0,1.6h5.21a2.965,2.965,0,0,0,2.962-2.962V27.2A2.965,2.965,0,0,0,51.78,24.24Zm-18,44.5h-1.4a.8.8,0,1,0,0,1.6H36.5v1.853H18.237V70.341H28.631a.8.8,0,1,0,0-1.6H20.963l.829-5.308H32.948Z" transform="translate(0 -24.24)"/></g></g></svg>