<svg xmlns="http://www.w3.org/2000/svg" width="51.992" height="58.385" viewBox="0 0 51.992 58.385"><defs><style>.a{fill:#fff;}</style></defs><g transform="translate(-3.504)"><path class="a" d="M40.552,19.138c-.03.018-.065.023-.095.045l-1.822,1.368a.912.912,0,0,0,1.1,1.459l.063-.047A7.293,7.293,0,0,1,27.121,24.5.912.912,0,1,0,25.7,25.648a9.112,9.112,0,0,0,15.9-3.415l.04.054a.913.913,0,0,0,1.46-1.1l-1.371-1.826c-.014-.018-.033-.026-.047-.042a.906.906,0,0,0-.14-.125,1.043,1.043,0,0,0-.138-.093.948.948,0,0,0-.162-.057.856.856,0,0,0-.178-.036c-.023,0-.043-.012-.065-.012a1,1,0,0,0-.107.021.908.908,0,0,0-.177.036.966.966,0,0,0-.17.081Z" transform="translate(-1.93 -1.667)"/><path class="a" d="M55.5,24.629a9.133,9.133,0,0,0-8.254-9.077,16.407,16.407,0,0,0-31.5-5.519h-.376a11.859,11.859,0,0,0-4.565,22.8v2.8a7.3,7.3,0,1,0,1.825,0V33.421a11.807,11.807,0,0,0,2.74.333H28.132v6.432a9.123,9.123,0,1,0,1.825,0V33.754h15.5v1.881a7.3,7.3,0,1,0,1.825,0V33.708a9.137,9.137,0,0,0,8.21-9.079ZM17.183,42.869A5.474,5.474,0,1,1,11.711,37.4,5.479,5.479,0,0,1,17.183,42.869Zm19.159,6.393a7.3,7.3,0,1,1-7.3-7.3A7.307,7.307,0,0,1,36.343,49.262ZM5.329,21.894A10.04,10.04,0,0,1,15.1,11.871a16.365,16.365,0,0,0-.655,4.549.912.912,0,0,0,1.825,0,14.6,14.6,0,1,1,29.191,0,.911.911,0,0,0,.912.912h0a7.3,7.3,0,0,1,0,14.6H15.363A10.046,10.046,0,0,1,5.329,21.894ZM51.846,42.869A5.474,5.474,0,1,1,46.373,37.4,5.479,5.479,0,0,1,51.846,42.869Z"/><path class="a" d="M33.766,56.2a.912.912,0,0,0,1.29,0l1.818-1.817.005,0a.914.914,0,0,0,0-1.292l-.005,0-1.818-1.819a.912.912,0,1,0-1.29,1.29l1.178,1.179-1.178,1.177A.911.911,0,0,0,33.766,56.2Z" transform="translate(-2.632 -4.474)"/><path class="a" d="M28.883,51.267a.911.911,0,0,0-1.29,0l-1.814,1.815s-.008,0-.011.007a.918.918,0,0,0,0,1.294s.007,0,.011.007L27.593,56.2a.912.912,0,1,0,1.29-1.29l-1.178-1.178,1.178-1.18a.911.911,0,0,0,0-1.29Z" transform="translate(-1.93 -4.474)"/><path class="a" d="M30.192,58.1a.883.883,0,0,0,.222.027.912.912,0,0,0,.884-.691l1.824-7.3a.912.912,0,1,0-1.77-.442l-1.824,7.3A.911.911,0,0,0,30.192,58.1Z" transform="translate(-2.281 -4.299)"/><path class="a" d="M52.758,48.382a.912.912,0,0,0,1.29,0l.908-.907.005,0a.914.914,0,0,0,0-1.292l-.005,0-.9-.9a.912.912,0,0,0-1.29,1.29l.263.263-.267.266a.913.913,0,0,0,0,1.29Z" transform="translate(-4.298 -3.948)"/><path class="a" d="M47.967,45.269a.911.911,0,0,0-1.29,0l-.908.907-.005,0a.914.914,0,0,0,0,1.292l.005,0,.908.907a.912.912,0,0,0,1.29-1.29l-.266-.266.266-.266A.911.911,0,0,0,47.967,45.269Z" transform="translate(-3.684 -3.948)"/><path class="a" d="M49.933,44.688l-.91,3.647a.913.913,0,0,0,.665,1.107.926.926,0,0,0,.222.026.915.915,0,0,0,.885-.691l.91-3.647a.913.913,0,1,0-1.772-.442Z" transform="translate(-3.991 -3.86)"/><path class="a" d="M14.762,48.382a.912.912,0,0,0,1.29,0l.908-.907.005,0a.914.914,0,0,0,0-1.292l-.005,0-.9-.9a.912.912,0,0,0-1.29,1.29l.263.263-.267.266a.911.911,0,0,0,0,1.29Z" transform="translate(-0.964 -3.948)"/><path class="a" d="M9.971,45.269a.911.911,0,0,0-1.29,0l-.908.907-.005,0a.914.914,0,0,0,0,1.292l.005,0,.908.907a.912.912,0,0,0,1.29-1.29l-.266-.266.266-.266A.911.911,0,0,0,9.971,45.269Z" transform="translate(-0.351 -3.948)"/><path class="a" d="M11.937,44.688l-.91,3.647a.913.913,0,0,0,.665,1.107.926.926,0,0,0,.222.026.915.915,0,0,0,.885-.691l.91-3.647a.913.913,0,1,0-1.772-.442Z" transform="translate(-0.658 -3.86)"/><path class="a" d="M23.549,19.674h0c.012.016.029.02.042.035a.862.862,0,0,0,.22.182c.024.016.041.042.066.055.007,0,.016,0,.022.005a.894.894,0,0,0,.379.088h0a.923.923,0,0,0,.284-.046c.009,0,.016-.009.023-.012s.01-.006.016-.008a.8.8,0,0,0,.1-.052.846.846,0,0,0,.124-.065l0,0,1.822-1.372a.912.912,0,0,0-1.1-1.457l-.061.047A7.294,7.294,0,0,1,38.165,14.54a.912.912,0,1,0,1.418-1.148,9.112,9.112,0,0,0-15.9,3.41l-.036-.048a.912.912,0,1,0-1.461,1.094Z" transform="translate(-1.623 -0.878)"/></g></svg>