<svg xmlns="http://www.w3.org/2000/svg" width="50" height="50" viewBox="0 0 50 50"><defs><style>.a{fill:#fff;}</style></defs><g transform="translate(-1 -1)"><path class="a" d="M34.993,29.09l-2.36-.36L31.57,26.464a.807.807,0,0,0-1.46,0l-1.063,2.265-2.36.36a.807.807,0,0,0-.456,1.36l1.731,1.775-.41,2.516a.807.807,0,0,0,1.186.836l2.1-1.162,2.1,1.161a.807.807,0,0,0,1.186-.836l-.41-2.516,1.731-1.775a.806.806,0,0,0-.455-1.36Zm-2.715,2.3a.806.806,0,0,0-.219.693l.209,1.279-1.039-.574a.806.806,0,0,0-.781,0l-1.039.574.209-1.279a.805.805,0,0,0-.219-.693l-.92-.943,1.235-.189a.805.805,0,0,0,.608-.454l.516-1.1.516,1.1a.8.8,0,0,0,.608.454l1.235.189Z" transform="translate(-4.839 -4.839)"/><path class="a" d="M29.871,21a8.871,8.871,0,1,0,8.871,8.871A8.881,8.881,0,0,0,29.871,21Zm0,16.129a7.258,7.258,0,1,1,7.258-7.258A7.266,7.266,0,0,1,29.871,37.129Z" transform="translate(-3.871 -3.871)"/><path class="a" d="M5.032,1a4.032,4.032,0,1,0,2.22,7.393L18.172,19.312l1.14-1.14L8.393,7.252A4.026,4.026,0,0,0,5.032,1Zm0,6.452A2.419,2.419,0,1,1,7.452,5.032,2.422,2.422,0,0,1,5.032,7.452Z" transform="translate(0 0)"/><path class="a" d="M54.573,1a4.026,4.026,0,0,0-3.36,6.252L40.293,18.172l1.14,1.14L52.353,8.393A4.03,4.03,0,1,0,54.573,1Zm0,6.452a2.419,2.419,0,1,1,2.419-2.419A2.422,2.422,0,0,1,54.573,7.452Z" transform="translate(-7.605)"/><path class="a" d="M54.573,50.541a4.007,4.007,0,0,0-2.22.672L41.433,40.293l-1.14,1.14L51.212,52.353a4.029,4.029,0,1,0,3.36-1.812Zm0,6.452a2.419,2.419,0,1,1,2.419-2.419A2.422,2.422,0,0,1,54.573,56.992Z" transform="translate(-7.605 -7.605)"/><path class="a" d="M7.226,28a3.226,3.226,0,1,0,3.111,4.032H16.1V30.419h-5.76A3.222,3.222,0,0,0,7.226,28Zm0,4.839a1.613,1.613,0,1,1,1.613-1.613A1.615,1.615,0,0,1,7.226,32.839Z" transform="translate(-0.581 -5.226)"/><path class="a" d="M53.871,34.452a3.226,3.226,0,1,0-3.111-4.032H45v1.613h5.76A3.222,3.222,0,0,0,53.871,34.452Zm0-4.839a1.613,1.613,0,1,1-1.613,1.613A1.615,1.615,0,0,1,53.871,29.613Z" transform="translate(-8.516 -5.226)"/><path class="a" d="M32.032,50.76V45H30.419v5.76a3.226,3.226,0,1,0,1.613,0Zm-.806,4.724a1.613,1.613,0,1,1,1.613-1.613A1.615,1.615,0,0,1,31.226,55.484Z" transform="translate(-5.226 -8.516)"/><path class="a" d="M18.172,40.293,7.252,51.212a4.044,4.044,0,1,0,1.14,1.14L19.312,41.433Zm-13.14,16.7a2.419,2.419,0,1,1,2.419-2.419A2.422,2.422,0,0,1,5.032,56.992Z" transform="translate(0 -7.605)"/><path class="a" d="M32.032,16.1v-5.76a3.226,3.226,0,1,0-1.613,0V16.1ZM29.613,7.226a1.613,1.613,0,1,1,1.613,1.613A1.615,1.615,0,0,1,29.613,7.226Z" transform="translate(-5.226 -0.581)"/></g></svg>