<svg xmlns="http://www.w3.org/2000/svg" xmlns:xlink="http://www.w3.org/1999/xlink" width="438.563" height="539.48" viewBox="0 0 438.563 539.48"><defs><style>.a{fill:#5793ce;}.b{fill:#396caa;}.c,.g{fill:#d4ecff;}.d{fill:#fff;}.e{fill:#fafdff;}.f{fill:#173d7a;}.g{opacity:0.4;}.h{fill:#274f89;}.i{fill:url(#a);}.j{fill:#eaeaea;}.k{fill:#ffc2b0;}.l{fill:#ea9c92;}.m{fill:#ff8080;}.n{fill:#d3008d;}</style><radialGradient id="a" cx="-6.324" cy="0.107" r="7.399" gradientTransform="translate(0.099) scale(0.803 1)" gradientUnits="objectBoundingBox"><stop offset="0" stop-color="#01c8ef"/><stop offset="0.089" stop-color="#02bee8"/><stop offset="0.239" stop-color="#07a4d7"/><stop offset="0.429" stop-color="#107bba"/><stop offset="0.446" stop-color="#1177b8"/><stop offset="1" stop-color="#112564"/></radialGradient></defs><g transform="translate(-271.741 -36.861)"><g transform="translate(524.77 36.861)"><g transform="translate(45.596 90.053)"><path class="a" d="M464.861,170.383a1.335,1.335,0,0,1-1.334-1.334V114.177a1.334,1.334,0,1,1,2.669,0v54.872A1.335,1.335,0,0,1,464.861,170.383Z" transform="translate(-457.138 -82.055)"/><g transform="translate(2.957 28.671)"><rect class="a" width="9.533" height="20.572"/><path class="a" d="M469.507,127.414a7.449,7.449,0,0,1-6.742,0c-1.861-1.075-1.861-2.817,0-3.892a7.449,7.449,0,0,1,6.742,0C471.367,124.6,471.367,126.339,469.507,127.414Z" transform="translate(-461.369 -104.897)"/></g><rect class="a" width="15.448" height="32.265"/><path class="b" d="M461.369,114v6.961a12.324,12.324,0,0,0,9.533,0V114A12.324,12.324,0,0,0,461.369,114Z" transform="translate(-458.412 -81.94)"/><path class="a" d="M472.7,118.58a12.075,12.075,0,0,1-10.924,0c-3.015-1.741-3.015-4.564,0-6.306a12.071,12.071,0,0,1,10.923,0C475.711,114.015,475.711,116.838,472.7,118.58Z" transform="translate(-459.51 -83.162)"/></g><g transform="translate(99.107 120.162)"><path class="a" d="M498.508,189.314a1.335,1.335,0,0,1-1.334-1.334v-54.87a1.334,1.334,0,1,1,2.669,0v54.87A1.335,1.335,0,0,1,498.508,189.314Z" transform="translate(-490.784 -100.987)"/><g transform="translate(2.957 28.671)"><rect class="a" width="9.533" height="20.572" transform="translate(0)"/><path class="a" d="M503.153,146.346a7.446,7.446,0,0,1-6.74,0c-1.862-1.074-1.862-2.817,0-3.892a7.456,7.456,0,0,1,6.74,0C505.015,143.529,505.015,145.272,503.153,146.346Z" transform="translate(-495.016 -123.829)"/></g><rect class="a" width="15.448" height="32.265" transform="translate(0)"/><path class="b" d="M495.016,132.928v6.961a12.324,12.324,0,0,0,9.533,0v-6.961A12.324,12.324,0,0,0,495.016,132.928Z" transform="translate(-492.058 -100.873)"/><path class="a" d="M506.342,137.512a12.071,12.071,0,0,1-10.923,0c-3.017-1.741-3.017-4.564,0-6.306a12.071,12.071,0,0,1,10.923,0C509.359,132.947,509.359,135.77,506.342,137.512Z" transform="translate(-493.156 -102.094)"/></g><path class="a" d="M532.278,159.746l20.713-12.2-19.726-24.619-5.186,8.473Z" transform="translate(-373.432 13.952)"/><path class="a" d="M436.155,68.178l33.058-19.019s-1.244,18.98-1.244,19.019-18.991,5.881-18.991,5.881Z" transform="translate(-427.702 -29.6)"/><path class="a" d="M583.188,148.649a20.815,20.815,0,0,0-7.152-2.65c-3.333-17.517-15.52-36.118-30.053-44.509a29.411,29.411,0,0,0-12.3-4.162C531.7,76.1,516.937,51.97,499.012,41.621c-9.364-5.407-17.86-6.047-24.129-2.735V38.87l-.3.175c-.161.087-.318.18-.476.274L454.61,50.831l6.478,5.115c-5.815,2.541-9.49,9.062-9.49,18.7,0,17.776,12.48,39.391,27.875,48.278l103.715,74.061c11.56,6.675,20.931,1.264,20.931-12.084S594.749,155.324,583.188,148.649Z" transform="translate(-418.585 -36.861)"/><path class="a" d="M452.2,66.821l44.739-26.14c-8.685-4.529-16.532-4.9-22.416-1.8v-.016l-.3.175c-.161.087-.318.18-.476.274L454.253,50.831l6.478,5.115C456.666,57.722,453.653,61.45,452.2,66.821Z" transform="translate(-418.228 -36.86)"/><path class="a" d="M516.8,120.365l32.643-19.156c-5.6-9.684-13.307-18.145-21.842-23.072q-1.7-.978-3.343-1.719l-41.52,24.28Z" transform="translate(-400.201 -13.507)"/><path class="c" d="M459.276,52.653l14.547,8.4,26.641-15.691a52.914,52.914,0,0,0-5.985-4.055,37.309,37.309,0,0,0-9.31-3.911Z" transform="translate(-414.052 -36.545)"/><path class="c" d="M532.088,88.462l-26.054,15.352,9.062,10.107,23.651-13.965A75.856,75.856,0,0,0,532.088,88.462Z" transform="translate(-386.447 -6.396)"/><path class="c" d="M574.978,156.232a20.816,20.816,0,0,0-7.152-2.65c-3.333-17.516-15.521-36.118-30.054-44.509a29.411,29.411,0,0,0-12.3-4.162C523.49,83.68,508.728,59.553,490.8,49.2c-19.279-11.131-34.907-2.109-34.907,20.152,0,.755.022,1.517.057,2.282-14.1-6.538-25.112.829-25.112,17.528,0,17.776,12.48,39.389,27.873,48.278l116.265,67.125c11.561,6.675,20.931,1.264,20.931-12.084S586.539,162.907,574.978,156.232Z" transform="translate(-430.84 -32.388)"/><g transform="translate(6.376 10.389)"><path class="d" d="M453.585,63.023c-.035-.765-.057-1.527-.057-2.282,0-.032,0-.062,0-.094-7.788-3.028-14.48-1.711-18.681,3.149C439.412,60.039,446.047,59.527,453.585,63.023Z" transform="translate(-434.849 -34.163)"/><path class="d" d="M564.511,155.189a20.816,20.816,0,0,0-7.152-2.65c-3.332-17.517-15.521-36.118-30.053-44.509a29.4,29.4,0,0,0-12.3-4.162c-1.985-21.232-16.747-45.359-34.672-55.71-12.011-6.934-22.6-6.043-28.883,1,6.4-5.469,16.193-5.679,27.181.665,17.925,10.349,32.687,34.478,34.672,55.708a29.411,29.411,0,0,1,12.3,4.162c14.533,8.391,26.72,26.992,30.054,44.509a20.816,20.816,0,0,1,7.152,2.65c11.56,6.675,20.931,22.9,20.931,36.253,0,4.817-1.234,8.58-3.337,11.134,3.135-2.414,5.038-6.793,5.038-12.793C585.442,178.094,576.071,161.864,564.511,155.189Z" transform="translate(-425.047 -43.393)"/></g><g transform="translate(5.843 17.877)"><path class="b" d="M451.324,74.775l8.739,4.052-.444-9.622c-.032-.676-.051-1.347-.051-2.013,0-8.59,2.594-14.818,7.3-17.537s11.4-1.85,18.84,2.444c16,9.239,29.958,31.723,31.776,51.193l.46,4.9,4.911.377a23.628,23.628,0,0,1,9.825,3.4c12.707,7.336,24.161,24.387,27.234,40.539l.77,4.044,4.067.636a15.108,15.108,0,0,1,5.135,1.939c9.762,5.636,18.01,19.921,18.01,31.192,0,4.218-1.171,7.313-3.209,8.491s-5.3.643-8.957-1.466L459.466,130.219c-13.525-7.809-24.952-27.6-24.952-43.217,0-6.129,1.807-10.8,4.959-12.811a8.488,8.488,0,0,1,4.634-1.24A17.491,17.491,0,0,1,451.324,74.775Z" transform="translate(-434.514 -48.101)"/></g><g transform="translate(55.323 74.371)"><path class="a" d="M481.57,112.112l3.067-1.54-3.019-2.287Z" transform="translate(-456.213 -69.065)"/><path class="a" d="M475.778,85.2l2.977-1.506.054,1.559Z" transform="translate(-459.632 -83.583)"/><path class="a" d="M488.138,107.293l3.107-1.563-5.98-5.688Z" transform="translate(-454.032 -73.931)"/><g transform="translate(3.114)"><path class="a" d="M488.818,119.983l-14.52-8.552a3.092,3.092,0,0,1-1.33-2.443l.048-16.81L490.2,102.3l-.048,16.81C490.154,120.027,489.554,120.417,488.818,119.983Z" transform="translate(-464.405 -78.574)"/><path class="a" d="M483.561,83.753,467.878,93.845c-.666.428-.127,2.025.883,2.619l16.017,9.434,16.018,9.433c1.01.6,1.555-.363.894-1.573l-15.573-28.5C485.444,84.026,484.238,83.317,483.561,83.753Z" transform="translate(-467.584 -83.624)"/></g><g transform="translate(0 1.568)"><path class="c" d="M486.86,120.969l-14.52-8.553a3.087,3.087,0,0,1-1.33-2.441l.048-16.81,17.189,10.124L488.2,120.1C488.2,121.013,487.6,121.4,486.86,120.969Z" transform="translate(-462.447 -79.56)"/><path class="c" d="M481.6,84.739,465.92,94.831c-.666.428-.127,2.025.883,2.619l16.017,9.433,16.018,9.434c1.01.595,1.555-.363.894-1.573l-15.573-28.5C483.486,85.012,482.28,84.3,481.6,84.739Z" transform="translate(-465.626 -84.61)"/></g></g><path class="c" d="M464.548,123.235c0,.945-.665,1.33-1.484.856a3.28,3.28,0,0,1-1.484-2.57c0-.946.665-1.33,1.484-.857A3.283,3.283,0,0,1,464.548,123.235Z" transform="translate(-412.692 12.496)"/><path class="c" d="M498.274,142.441c0,.946-.663,1.33-1.484.857a3.282,3.282,0,0,1-1.484-2.57c0-.946.665-1.33,1.484-.857A3.278,3.278,0,0,1,498.274,142.441Z" transform="translate(-392.78 23.836)"/></g><g transform="translate(460.406 164.972)"><path class="c" d="M462.756,297.2,394.81,258.46c-2.484-1.435-2.172-3.941.7-5.6L434.6,230.293c2.869-1.657,7.209-1.837,9.693-.4l67.946,38.743c2.484,1.435,2.174,3.941-.7,5.6L472.451,296.8C469.581,298.458,465.241,298.638,462.756,297.2Z" transform="translate(-388.738 -51.582)"/><path class="b" d="M519.924,313.577h0V154.955L456.866,138.45l-11.616-6.705c-2.665-1.539-7.322-1.347-10.4.431l-10.837,6.257-33.635-.019,9.961,153.127a3.013,3.013,0,0,0,1.784,2.786l62.93,47.484c2.667,1.539,7.322,1.345,10.4-.431l41.939-24.214C519.167,316.141,520.025,314.813,519.924,313.577Z" transform="translate(-390.365 -109.568)"/><path class="c" d="M440.427,130.71a11.985,11.985,0,0,0-5.574,1.463l-10.837,6.257-33.635-.019V297.46a3.013,3.013,0,0,0,1.786,2.785l72.889,41.563a9.411,9.411,0,0,0,4.827,1.031l.752-160.042Z" transform="translate(-390.367 -109.565)"/><path class="a" d="M437.753,323.5a11.848,11.848,0,0,0,8.313-.1V162.271h-8.313Z" transform="translate(-362.395 -90.932)"/><path class="c" d="M465.058,190.664,392.169,149.1c-2.665-1.54-2.331-4.227.747-6.005l41.938-24.212c3.077-1.778,7.734-1.97,10.4-.431l72.889,41.562c2.666,1.54,2.332,4.227-.746,6l-41.939,24.214C472.38,192.011,467.725,192.2,465.058,190.664Z" transform="translate(-390.37 -117.414)"/><path class="e" d="M517.4,152.841l-41.939,24.214c-3.079,1.776-7.734,1.97-10.4.431l-72.889-41.563a3.985,3.985,0,0,1-1.33-1.18c-.916,1.474-.5,3.073,1.33,4.13l72.889,41.562c2.667,1.539,7.322,1.347,10.4-.431L517.4,155.789c2.392-1.38,3.119-3.31,2.077-4.824A5.82,5.82,0,0,1,517.4,152.841Z" transform="translate(-390.369 -107.184)"/><g transform="translate(27.38 13.447)"><path class="f" d="M456.957,168.828,408.428,140.7c-1.247-.72-1.091-1.978.35-2.81l19.625-11.33a5.408,5.408,0,0,1,4.867-.2L481.8,154.486c1.247.72,1.091,1.978-.35,2.81l-19.625,11.33A5.408,5.408,0,0,1,456.957,168.828Z" transform="translate(-407.586 -125.869)"/><g transform="translate(20.243 12.416)"><path class="c" d="M423.243,137.353l-2.813-1.624c-.172-.1-.149-.274.049-.39l2.715-1.568a.75.75,0,0,1,.674-.027l2.812,1.624c.172.1.151.274-.049.388l-2.715,1.568A.753.753,0,0,1,423.243,137.353Z" transform="translate(-420.314 -133.676)"/><path class="c" d="M429.15,140.748l-2.812-1.624c-.173-.1-.151-.274.048-.388l2.715-1.568a.75.75,0,0,1,.674-.027l2.812,1.622c.172.1.151.275-.049.39l-2.715,1.568A.747.747,0,0,1,429.15,140.748Z" transform="translate(-416.827 -131.671)"/><path class="c" d="M435.057,144.146l-2.812-1.624c-.173-.1-.151-.274.048-.39l2.715-1.567a.746.746,0,0,1,.674-.029l2.812,1.624c.172.1.151.274-.049.388l-2.715,1.568A.747.747,0,0,1,435.057,144.146Z" transform="translate(-413.339 -129.666)"/><path class="c" d="M440.964,147.541l-2.812-1.624c-.173-.1-.151-.274.048-.388l2.715-1.568a.75.75,0,0,1,.674-.027l2.812,1.624c.173.1.151.274-.048.388l-2.716,1.568A.747.747,0,0,1,440.964,147.541Z" transform="translate(-409.852 -127.66)"/></g><path class="a" d="M408.428,140.7l.059.033a2.929,2.929,0,0,1,.291-.2L428.4,129.2a5.408,5.408,0,0,1,4.867-.2l48.47,28.1c1.15-.822,1.21-1.943.059-2.608l-48.529-28.131a5.408,5.408,0,0,0-4.867.2l-19.625,11.33C407.337,138.719,407.181,139.977,408.428,140.7Z" transform="translate(-407.586 -125.869)"/></g><g transform="translate(90.467 71.178)"><path class="f" d="M450.065,195.669l27.59-15.8a6.732,6.732,0,0,0,2.812-5.372v-9.867c0-2.071-1.258-3.022-2.812-2.125l-27.59,15.8a6.729,6.729,0,0,0-2.812,5.371v9.867C447.253,195.613,448.511,196.564,450.065,195.669Z" transform="translate(-447.253 -162.17)"/><path class="d" d="M478.759,162.195a2.75,2.75,0,0,1,.706,2.052v9.867a6.732,6.732,0,0,1-2.812,5.372l-27.592,15.8a2.017,2.017,0,0,1-1.365.3,1.675,1.675,0,0,0,2.106.073l27.592-15.8a6.735,6.735,0,0,0,2.81-5.372v-9.867C480.2,163.211,479.618,162.34,478.759,162.195Z" transform="translate(-446.991 -162.155)"/><g transform="translate(10.497 12.022)"><path class="b" d="M454.467,178.673l2.53-1.462a1.463,1.463,0,0,0,.612-1.171v-2.7c0-.45-.274-.658-.612-.463l-2.53,1.462a1.467,1.467,0,0,0-.614,1.171v2.7C453.853,178.662,454.128,178.868,454.467,178.673Z" transform="translate(-453.853 -167.915)"/><path class="d" d="M459.787,175.6l2.53-1.462a1.467,1.467,0,0,0,.614-1.171v-2.7c0-.452-.275-.658-.614-.463l-2.53,1.46a1.469,1.469,0,0,0-.612,1.172v2.7C459.175,175.588,459.449,175.8,459.787,175.6Z" transform="translate(-450.711 -169.729)"/></g></g><g transform="translate(90.467 142.479)"><path class="f" d="M450.065,240.5l27.59-15.8a6.731,6.731,0,0,0,2.812-5.371v-9.868c0-2.069-1.258-3.022-2.812-2.125l-27.59,15.8a6.732,6.732,0,0,0-2.812,5.372v9.867C447.253,240.445,448.511,241.4,450.065,240.5Z" transform="translate(-447.253 -207.002)"/><path class="d" d="M478.759,207.027a2.754,2.754,0,0,1,.706,2.053v9.867a6.729,6.729,0,0,1-2.812,5.371l-27.592,15.8a2.026,2.026,0,0,1-1.365.3,1.678,1.678,0,0,0,2.106.072l27.592-15.8a6.734,6.734,0,0,0,2.81-5.371v-9.868C480.2,208.043,479.618,207.173,478.759,207.027Z" transform="translate(-446.991 -206.987)"/><g transform="translate(10.497 12.022)"><path class="b" d="M454.467,223.5l2.53-1.46a1.468,1.468,0,0,0,.612-1.172v-2.7c0-.452-.274-.66-.612-.464l-2.53,1.462a1.469,1.469,0,0,0-.614,1.171v2.7C453.853,223.494,454.128,223.7,454.467,223.5Z" transform="translate(-453.853 -212.747)"/><path class="d" d="M459.787,220.433l2.53-1.462a1.464,1.464,0,0,0,.614-1.171v-2.7c0-.45-.275-.658-.614-.463l-2.53,1.462a1.466,1.466,0,0,0-.612,1.171v2.7C459.175,220.422,459.449,220.628,459.787,220.433Z" transform="translate(-450.711 -214.561)"/></g></g><g transform="translate(90.467 178.129)"><path class="f" d="M450.065,262.916l27.59-15.8a6.731,6.731,0,0,0,2.812-5.371V231.88c0-2.069-1.258-3.022-2.812-2.125l-27.59,15.8a6.732,6.732,0,0,0-2.812,5.372v9.867C447.253,262.862,448.511,263.813,450.065,262.916Z" transform="translate(-447.253 -229.418)"/><path class="d" d="M478.759,229.443a2.754,2.754,0,0,1,.706,2.053v9.867a6.726,6.726,0,0,1-2.812,5.371l-27.592,15.8a2.026,2.026,0,0,1-1.365.3,1.678,1.678,0,0,0,2.106.072l27.592-15.8a6.731,6.731,0,0,0,2.81-5.371v-9.868C480.2,230.461,479.618,229.589,478.759,229.443Z" transform="translate(-446.991 -229.403)"/><g transform="translate(10.497 12.022)"><path class="b" d="M454.467,245.922,457,244.46a1.468,1.468,0,0,0,.612-1.171v-2.7c0-.452-.274-.658-.612-.463l-2.53,1.46a1.47,1.47,0,0,0-.614,1.172v2.7C453.853,245.909,454.128,246.118,454.467,245.922Z" transform="translate(-453.853 -235.163)"/><path class="d" d="M459.787,242.849l2.53-1.46a1.47,1.47,0,0,0,.614-1.172v-2.7c0-.45-.275-.658-.614-.463l-2.53,1.462a1.466,1.466,0,0,0-.612,1.171v2.7C459.175,242.838,459.449,243.044,459.787,242.849Z" transform="translate(-450.711 -236.977)"/></g></g><g transform="translate(90.467 106.828)"><path class="f" d="M450.065,218.085l27.59-15.8a6.732,6.732,0,0,0,2.812-5.372v-9.867c0-2.071-1.258-3.022-2.812-2.125l-27.59,15.8a6.731,6.731,0,0,0-2.812,5.371v9.868C447.253,218.029,448.511,218.981,450.065,218.085Z" transform="translate(-447.253 -184.586)"/><path class="d" d="M478.759,184.611a2.75,2.75,0,0,1,.706,2.052v9.868a6.729,6.729,0,0,1-2.812,5.371l-27.592,15.8a2.017,2.017,0,0,1-1.365.3,1.675,1.675,0,0,0,2.106.073l27.592-15.8a6.735,6.735,0,0,0,2.81-5.372v-9.867C480.2,185.627,479.618,184.757,478.759,184.611Z" transform="translate(-446.991 -184.571)"/><g transform="translate(10.497 12.022)"><path class="b" d="M454.467,201.089l2.53-1.462a1.463,1.463,0,0,0,.612-1.171v-2.7c0-.45-.274-.658-.612-.463l-2.53,1.462a1.467,1.467,0,0,0-.614,1.171v2.7C453.853,201.078,454.128,201.284,454.467,201.089Z" transform="translate(-453.853 -190.331)"/><path class="d" d="M459.787,198.017l2.53-1.462a1.467,1.467,0,0,0,.614-1.171v-2.7c0-.452-.275-.658-.614-.463l-2.53,1.462a1.465,1.465,0,0,0-.612,1.171v2.7C459.175,198.006,459.449,198.213,459.787,198.017Z" transform="translate(-450.711 -192.145)"/></g></g><g transform="translate(3.143 38.497)"><path class="a" d="M458.582,197.7l-63.657-36.752a6.177,6.177,0,0,1-2.579-4.929V143.88c0-1.9,1.155-2.772,2.579-1.95l63.657,36.752a6.177,6.177,0,0,1,2.58,4.929v12.138C461.162,197.649,460.007,198.522,458.582,197.7Z" transform="translate(-392.346 -141.62)"/><path class="g" d="M455.6,191.808l-60-34.642a3.14,3.14,0,0,1-1.309-2.5v-9.126c0-.964.587-1.406,1.309-.989l60,34.642a3.136,3.136,0,0,1,1.309,2.5v9.124C456.914,191.782,456.329,192.224,455.6,191.808Z" transform="translate(-391.196 -139.984)"/><path class="c" d="M406.776,157.3l-8.955-5.169a3.047,3.047,0,0,1-1.271-2.429h0c0-.937.569-1.366,1.271-.962l8.955,5.17a3.047,3.047,0,0,1,1.271,2.428h0C408.047,157.272,407.478,157.7,406.776,157.3Z" transform="translate(-389.864 -137.509)"/><path class="f" d="M408.868,156.785c0,.935-.657,1.315-1.468.848a3.245,3.245,0,0,1-1.468-2.543c0-.935.657-1.315,1.468-.846A3.24,3.24,0,0,1,408.868,156.785Z" transform="translate(-384.325 -134.287)"/><path class="f" d="M412.122,158.664c0,.937-.657,1.317-1.468.848a3.245,3.245,0,0,1-1.466-2.541c0-.937.657-1.315,1.466-.848A3.242,3.242,0,0,1,412.122,158.664Z" transform="translate(-382.403 -133.177)"/><path class="c" d="M415.379,160.544c0,.937-.657,1.315-1.468.848a3.243,3.243,0,0,1-1.468-2.541c0-.937.657-1.317,1.468-.848A3.242,3.242,0,0,1,415.379,160.544Z" transform="translate(-380.481 -132.067)"/><path class="f" d="M418.633,162.424c0,.935-.657,1.315-1.468.846a3.242,3.242,0,0,1-1.466-2.541c0-.935.657-1.315,1.466-.848A3.243,3.243,0,0,1,418.633,162.424Z" transform="translate(-378.559 -130.958)"/><path class="f" d="M432.68,173.685l-3.015-1.74a1.953,1.953,0,0,1-.816-1.559v-3.192c0-.6.364-.876.816-.617l3.015,1.741a1.958,1.958,0,0,1,.816,1.559v3.192C433.5,173.669,433.13,173.945,432.68,173.685Z" transform="translate(-370.795 -126.944)"/></g><g transform="translate(3.143 59.902)"><path class="a" d="M458.582,211.159l-63.657-36.752a6.18,6.18,0,0,1-2.579-4.93V157.339c0-1.9,1.155-2.772,2.579-1.95l63.657,36.752a6.175,6.175,0,0,1,2.58,4.929v12.138C461.162,211.108,460.007,211.981,458.582,211.159Z" transform="translate(-392.346 -155.079)"/><path class="g" d="M455.6,205.265l-60-34.642a3.135,3.135,0,0,1-1.309-2.5V159c0-.964.587-1.406,1.309-.989l60,34.642a3.131,3.131,0,0,1,1.309,2.5v9.124C456.914,205.239,456.329,205.683,455.6,205.265Z" transform="translate(-391.196 -153.443)"/><path class="c" d="M406.776,170.755l-8.955-5.17a3.042,3.042,0,0,1-1.271-2.429h0c0-.935.569-1.366,1.271-.961l8.955,5.17a3.045,3.045,0,0,1,1.271,2.429h0C408.047,170.73,407.478,171.161,406.776,170.755Z" transform="translate(-389.864 -150.968)"/><path class="d" d="M408.868,170.244c0,.935-.657,1.315-1.468.846a3.24,3.24,0,0,1-1.468-2.541c0-.935.657-1.315,1.468-.848A3.243,3.243,0,0,1,408.868,170.244Z" transform="translate(-384.325 -147.746)"/><path class="f" d="M412.122,172.123c0,.937-.657,1.315-1.468.848a3.245,3.245,0,0,1-1.466-2.541c0-.937.657-1.315,1.466-.848A3.242,3.242,0,0,1,412.122,172.123Z" transform="translate(-382.403 -146.636)"/><path class="c" d="M415.379,174c0,.935-.657,1.315-1.468.846a3.24,3.24,0,0,1-1.468-2.541c0-.935.657-1.315,1.468-.848A3.245,3.245,0,0,1,415.379,174Z" transform="translate(-380.481 -145.527)"/><path class="f" d="M418.633,175.882c0,.937-.657,1.315-1.468.848a3.245,3.245,0,0,1-1.466-2.541c0-.937.657-1.315,1.466-.848A3.242,3.242,0,0,1,418.633,175.882Z" transform="translate(-378.559 -144.417)"/><path class="f" d="M432.68,187.144l-3.015-1.741a1.949,1.949,0,0,1-.816-1.559v-3.19c0-.6.364-.876.816-.617l3.015,1.741a1.953,1.953,0,0,1,.816,1.559v3.192C433.5,187.128,433.13,187.4,432.68,187.144Z" transform="translate(-370.795 -140.403)"/></g><g transform="translate(3.143 81.306)"><path class="a" d="M458.582,224.617l-63.657-36.752a6.177,6.177,0,0,1-2.579-4.929V170.8c0-1.9,1.155-2.774,2.579-1.95L458.582,205.6a6.18,6.18,0,0,1,2.58,4.93v12.138C461.162,224.566,460.007,225.439,458.582,224.617Z" transform="translate(-392.346 -168.538)"/><path class="g" d="M455.6,218.724l-60-34.642a3.135,3.135,0,0,1-1.309-2.5v-9.126c0-.964.587-1.407,1.309-.989l60,34.642a3.13,3.13,0,0,1,1.309,2.5v9.126C456.914,218.7,456.329,219.141,455.6,218.724Z" transform="translate(-391.196 -166.901)"/><path class="c" d="M406.776,184.214l-8.955-5.17a3.044,3.044,0,0,1-1.271-2.429h0c0-.935.569-1.366,1.271-.961l8.955,5.17a3.045,3.045,0,0,1,1.271,2.429h0C408.047,184.189,407.478,184.62,406.776,184.214Z" transform="translate(-389.864 -164.426)"/><path class="d" d="M408.868,183.7c0,.937-.657,1.315-1.468.848a3.242,3.242,0,0,1-1.468-2.541c0-.937.657-1.315,1.468-.848A3.243,3.243,0,0,1,408.868,183.7Z" transform="translate(-384.325 -161.204)"/><path class="f" d="M412.122,185.582c0,.935-.657,1.315-1.468.848a3.248,3.248,0,0,1-1.466-2.543c0-.935.657-1.315,1.466-.846A3.24,3.24,0,0,1,412.122,185.582Z" transform="translate(-382.403 -160.094)"/><path class="c" d="M415.379,187.462c0,.935-.657,1.314-1.468.846a3.242,3.242,0,0,1-1.468-2.541c0-.937.657-1.315,1.468-.848A3.243,3.243,0,0,1,415.379,187.462Z" transform="translate(-380.481 -158.985)"/><path class="f" d="M418.633,189.341c0,.937-.657,1.315-1.468.848a3.245,3.245,0,0,1-1.466-2.541c0-.937.657-1.317,1.466-.848A3.24,3.24,0,0,1,418.633,189.341Z" transform="translate(-378.559 -157.875)"/><path class="f" d="M432.68,200.6l-3.015-1.741a1.951,1.951,0,0,1-.816-1.559v-3.192c0-.6.364-.876.816-.615l3.015,1.741a1.953,1.953,0,0,1,.816,1.559v3.19C433.5,200.587,433.13,200.862,432.68,200.6Z" transform="translate(-370.795 -153.861)"/></g><g transform="translate(3.143 102.71)"><path class="a" d="M458.582,238.076l-63.657-36.752a6.177,6.177,0,0,1-2.579-4.929V184.257c0-1.9,1.155-2.774,2.579-1.951l63.657,36.752a6.177,6.177,0,0,1,2.58,4.929v12.139C461.162,238.025,460.007,238.9,458.582,238.076Z" transform="translate(-392.346 -181.996)"/><path class="g" d="M455.6,232.184l-60-34.642a3.14,3.14,0,0,1-1.309-2.5v-9.124c0-.965.587-1.407,1.309-.991l60,34.642a3.136,3.136,0,0,1,1.309,2.5v9.126C456.914,232.158,456.329,232.6,455.6,232.184Z" transform="translate(-391.196 -180.36)"/><path class="c" d="M406.776,197.672l-8.955-5.169a3.047,3.047,0,0,1-1.271-2.429h0c0-.937.569-1.366,1.271-.961l8.955,5.169a3.047,3.047,0,0,1,1.271,2.428h0C408.047,197.648,407.478,198.077,406.776,197.672Z" transform="translate(-389.864 -177.885)"/><path class="f" d="M408.868,197.161c0,.935-.657,1.315-1.468.848a3.242,3.242,0,0,1-1.468-2.541c0-.937.657-1.317,1.468-.848A3.242,3.242,0,0,1,408.868,197.161Z" transform="translate(-384.325 -174.663)"/><path class="f" d="M412.122,199.041c0,.935-.657,1.315-1.468.846a3.243,3.243,0,0,1-1.466-2.541c0-.937.657-1.315,1.466-.848A3.243,3.243,0,0,1,412.122,199.041Z" transform="translate(-382.403 -173.553)"/><path class="c" d="M415.379,200.92c0,.937-.657,1.315-1.468.848a3.242,3.242,0,0,1-1.468-2.541c0-.937.657-1.315,1.468-.848A3.242,3.242,0,0,1,415.379,200.92Z" transform="translate(-380.481 -172.443)"/><path class="f" d="M418.633,202.8c0,.935-.657,1.315-1.468.846A3.242,3.242,0,0,1,415.7,201.1c0-.935.657-1.315,1.466-.848A3.245,3.245,0,0,1,418.633,202.8Z" transform="translate(-378.559 -171.334)"/><path class="c" d="M432.68,214.062l-3.015-1.741a1.953,1.953,0,0,1-.816-1.559V207.57c0-.6.364-.876.816-.617l3.015,1.741a1.958,1.958,0,0,1,.816,1.559v3.192C433.5,214.045,433.13,214.321,432.68,214.062Z" transform="translate(-370.795 -167.32)"/></g><g transform="translate(3.143 124.115)"><path class="a" d="M458.582,251.535l-63.657-36.752a6.178,6.178,0,0,1-2.579-4.93V197.715c0-1.9,1.155-2.772,2.579-1.95l63.657,36.752a6.177,6.177,0,0,1,2.58,4.929v12.138C461.162,251.484,460.007,252.357,458.582,251.535Z" transform="translate(-392.346 -195.455)"/><path class="g" d="M455.6,245.643,395.6,211a3.134,3.134,0,0,1-1.309-2.5v-9.126c0-.964.587-1.406,1.309-.989l60,34.642a3.133,3.133,0,0,1,1.309,2.5v9.124C456.914,245.615,456.329,246.059,455.6,245.643Z" transform="translate(-391.196 -193.819)"/><path class="c" d="M406.776,211.131l-8.955-5.17a3.042,3.042,0,0,1-1.271-2.428h0c0-.935.569-1.366,1.271-.961l8.955,5.17a3.047,3.047,0,0,1,1.271,2.429h0C408.047,211.107,407.478,211.537,406.776,211.131Z" transform="translate(-389.864 -191.344)"/><path class="f" d="M408.868,210.62c0,.935-.657,1.315-1.468.846a3.24,3.24,0,0,1-1.468-2.541c0-.935.657-1.315,1.468-.848A3.245,3.245,0,0,1,408.868,210.62Z" transform="translate(-384.325 -188.122)"/><path class="d" d="M412.122,212.5c0,.937-.657,1.315-1.468.848a3.245,3.245,0,0,1-1.466-2.541c0-.937.657-1.315,1.466-.848A3.242,3.242,0,0,1,412.122,212.5Z" transform="translate(-382.403 -187.012)"/><path class="c" d="M415.379,214.379c0,.935-.657,1.315-1.468.848a3.245,3.245,0,0,1-1.468-2.543c0-.935.657-1.315,1.468-.848A3.245,3.245,0,0,1,415.379,214.379Z" transform="translate(-380.481 -185.903)"/><path class="d" d="M418.633,216.258c0,.937-.657,1.315-1.468.848a3.245,3.245,0,0,1-1.466-2.541c0-.937.657-1.315,1.466-.848A3.243,3.243,0,0,1,418.633,216.258Z" transform="translate(-378.559 -184.793)"/><path class="c" d="M432.68,227.52l-3.015-1.741a1.949,1.949,0,0,1-.816-1.559v-3.19c0-.6.364-.876.816-.617l3.015,1.741a1.955,1.955,0,0,1,.816,1.559V226.9C433.5,227.5,433.13,227.78,432.68,227.52Z" transform="translate(-370.795 -180.779)"/></g><g transform="translate(3.143 145.52)"><path class="a" d="M458.582,264.993,394.926,228.24a6.175,6.175,0,0,1-2.579-4.929V211.174c0-1.9,1.155-2.774,2.579-1.95l63.657,36.751a6.18,6.18,0,0,1,2.58,4.93v12.138C461.162,264.943,460.007,265.816,458.582,264.993Z" transform="translate(-392.346 -208.914)"/><path class="g" d="M455.6,259.1l-60-34.642a3.134,3.134,0,0,1-1.309-2.5v-9.126c0-.964.587-1.408,1.309-.989l60,34.642a3.13,3.13,0,0,1,1.309,2.5v9.126C456.914,259.075,456.329,259.518,455.6,259.1Z" transform="translate(-391.196 -207.277)"/><path class="c" d="M406.776,224.59l-8.955-5.17a3.044,3.044,0,0,1-1.271-2.428h0c0-.935.569-1.366,1.271-.961l8.955,5.17a3.045,3.045,0,0,1,1.271,2.428h0C408.047,224.565,407.478,225,406.776,224.59Z" transform="translate(-389.864 -204.802)"/><path class="f" d="M408.868,224.078c0,.937-.657,1.315-1.468.848a3.242,3.242,0,0,1-1.468-2.541c0-.937.657-1.315,1.468-.848A3.243,3.243,0,0,1,408.868,224.078Z" transform="translate(-384.325 -201.58)"/><path class="f" d="M412.122,225.958c0,.935-.657,1.315-1.468.848a3.246,3.246,0,0,1-1.466-2.543c0-.935.657-1.315,1.466-.846A3.24,3.24,0,0,1,412.122,225.958Z" transform="translate(-382.403 -200.47)"/><path class="c" d="M415.379,227.838c0,.935-.657,1.315-1.468.846a3.243,3.243,0,0,1-1.468-2.541c0-.935.657-1.315,1.468-.848A3.245,3.245,0,0,1,415.379,227.838Z" transform="translate(-380.481 -199.361)"/><path class="f" d="M418.633,229.717c0,.937-.657,1.315-1.468.848a3.245,3.245,0,0,1-1.466-2.541c0-.937.657-1.317,1.466-.848A3.242,3.242,0,0,1,418.633,229.717Z" transform="translate(-378.559 -198.251)"/><path class="f" d="M432.68,240.979l-3.015-1.741a1.951,1.951,0,0,1-.816-1.559v-3.192c0-.6.364-.876.816-.615l3.015,1.741a1.953,1.953,0,0,1,.816,1.559v3.19C433.5,240.963,433.13,241.238,432.68,240.979Z" transform="translate(-370.795 -194.237)"/></g><g transform="translate(3.143 166.924)"><path class="a" d="M458.582,278.452,394.926,241.7a6.177,6.177,0,0,1-2.579-4.929V224.633c0-1.9,1.155-2.774,2.579-1.951l63.657,36.752a6.178,6.178,0,0,1,2.58,4.93V276.5C461.162,278.4,460.007,279.274,458.582,278.452Z" transform="translate(-392.346 -222.372)"/><path class="g" d="M455.6,272.559l-60-34.642a3.14,3.14,0,0,1-1.309-2.5v-9.124c0-.964.587-1.407,1.309-.991l60,34.643a3.13,3.13,0,0,1,1.309,2.5v9.126C456.914,272.534,456.329,272.976,455.6,272.559Z" transform="translate(-391.196 -220.736)"/><path class="c" d="M406.776,238.048l-8.955-5.169a3.047,3.047,0,0,1-1.271-2.429h0c0-.937.569-1.366,1.271-.961l8.955,5.169a3.047,3.047,0,0,1,1.271,2.429h0C408.047,238.024,407.478,238.453,406.776,238.048Z" transform="translate(-389.864 -218.261)"/><path class="d" d="M430.907,250.862c0,1.767-1.242,2.484-2.772,1.6a6.125,6.125,0,0,1-2.772-4.8c0-1.769,1.241-2.484,2.772-1.6A6.127,6.127,0,0,1,430.907,250.862Z" transform="translate(-372.853 -208.611)"/><path class="f" d="M408.868,237.7c0,.937-.657,1.315-1.468.848a3.242,3.242,0,0,1-1.468-2.541c0-.937.657-1.315,1.468-.848A3.242,3.242,0,0,1,408.868,237.7Z" transform="translate(-384.325 -214.939)"/><path class="c" d="M412.122,239.585c0,.935-.657,1.315-1.468.848a3.248,3.248,0,0,1-1.466-2.543c0-.935.657-1.315,1.466-.846A3.242,3.242,0,0,1,412.122,239.585Z" transform="translate(-382.403 -213.83)"/><path class="f" d="M415.379,241.465c0,.935-.657,1.315-1.468.846a3.243,3.243,0,0,1-1.468-2.541c0-.937.657-1.315,1.468-.848A3.243,3.243,0,0,1,415.379,241.465Z" transform="translate(-380.481 -212.72)"/></g></g><g transform="translate(550.709 216.728)"><path class="c" d="M519.537,329.748,451.591,291c-2.486-1.435-2.174-3.941.7-5.6l39.093-22.571c2.869-1.656,7.209-1.837,9.695-.4l67.944,38.742c2.486,1.436,2.174,3.941-.7,5.6L529.23,329.346C526.361,331,522.021,331.182,519.537,329.748Z" transform="translate(-445.519 -84.125)"/><path class="b" d="M576.705,346.121h0V187.5l-63.06-16.5-11.616-6.707c-2.665-1.539-7.321-1.345-10.4.431l-10.837,6.257-33.633-.019,9.959,153.129a3.015,3.015,0,0,0,1.786,2.786l62.93,47.483c2.665,1.539,7.322,1.347,10.4-.431l41.938-24.212C575.948,348.685,576.8,347.357,576.705,346.121Z" transform="translate(-447.144 -142.111)"/><path class="c" d="M497.206,163.254a12.014,12.014,0,0,0-5.574,1.462l-10.837,6.257-33.633-.019V330a3.012,3.012,0,0,0,1.786,2.786l72.889,41.562a9.421,9.421,0,0,0,4.827,1.032l.751-160.044Z" transform="translate(-447.147 -142.108)"/><path class="a" d="M494.534,356.047a11.857,11.857,0,0,0,8.313-.1V194.815h-8.313Z" transform="translate(-419.175 -123.475)"/><path class="c" d="M521.839,223.208,448.95,181.647c-2.667-1.54-2.332-4.229.746-6.005l41.939-24.214c3.079-1.776,7.734-1.971,10.4-.431l72.891,41.562c2.666,1.54,2.332,4.229-.747,6.005l-41.938,24.214C529.161,224.554,524.5,224.748,521.839,223.208Z" transform="translate(-447.15 -149.958)"/><path class="e" d="M574.177,185.385,532.239,209.6c-3.077,1.778-7.734,1.97-10.4.433L448.95,168.466a4.025,4.025,0,0,1-1.331-1.18c-.916,1.474-.5,3.073,1.331,4.13l72.889,41.562c2.666,1.539,7.322,1.345,10.4-.431l41.938-24.214c2.392-1.38,3.119-3.31,2.077-4.825A5.822,5.822,0,0,1,574.177,185.385Z" transform="translate(-447.15 -139.727)"/><g transform="translate(27.381 13.448)"><path class="f" d="M513.736,201.371l-48.527-28.129c-1.247-.72-1.091-1.978.35-2.81l19.624-11.33a5.411,5.411,0,0,1,4.868-.2l48.527,28.129c1.247.72,1.091,1.978-.35,2.81L518.6,201.17A5.407,5.407,0,0,1,513.736,201.371Z" transform="translate(-464.367 -158.413)"/><g transform="translate(20.242 12.416)"><path class="c" d="M480.023,169.9l-2.812-1.624c-.173-.1-.151-.274.048-.388l2.716-1.568a.747.747,0,0,1,.673-.027l2.812,1.622c.173.1.151.275-.048.39l-2.716,1.568A.747.747,0,0,1,480.023,169.9Z" transform="translate(-477.094 -166.22)"/><path class="c" d="M485.93,173.292l-2.812-1.624c-.173-.1-.151-.274.048-.39l2.716-1.567a.748.748,0,0,1,.673-.029l2.812,1.624c.173.1.151.274-.048.388l-2.715,1.568A.751.751,0,0,1,485.93,173.292Z" transform="translate(-473.607 -164.215)"/><path class="c" d="M491.837,176.688l-2.812-1.624c-.172-.1-.151-.274.048-.388l2.716-1.568a.747.747,0,0,1,.673-.027l2.812,1.624c.173.1.151.274-.048.388l-2.715,1.568A.75.75,0,0,1,491.837,176.688Z" transform="translate(-470.119 -162.21)"/><path class="c" d="M497.744,180.085l-2.812-1.624c-.172-.1-.151-.274.049-.388l2.715-1.568a.752.752,0,0,1,.673-.029l2.812,1.624c.173.1.151.274-.048.39l-2.715,1.567A.746.746,0,0,1,497.744,180.085Z" transform="translate(-466.632 -160.205)"/></g><path class="a" d="M465.209,173.242l.057.033a3.507,3.507,0,0,1,.293-.2l19.624-11.33a5.411,5.411,0,0,1,4.868-.2l48.47,28.1c1.15-.824,1.21-1.943.057-2.61L490.05,158.9a5.411,5.411,0,0,0-4.868.2l-19.624,11.33C464.118,171.263,463.962,172.521,465.209,173.242Z" transform="translate(-464.367 -158.413)"/></g><g transform="translate(90.466 71.178)"><path class="f" d="M506.845,228.211l27.592-15.8a6.733,6.733,0,0,0,2.812-5.371v-9.868c0-2.069-1.26-3.022-2.812-2.125l-27.592,15.8a6.736,6.736,0,0,0-2.812,5.372v9.867C504.033,228.157,505.293,229.108,506.845,228.211Z" transform="translate(-504.033 -194.713)"/><path class="d" d="M535.54,194.738a2.754,2.754,0,0,1,.7,2.053v9.867a6.734,6.734,0,0,1-2.81,5.372l-27.592,15.8a2.032,2.032,0,0,1-1.366.3,1.678,1.678,0,0,0,2.106.072l27.592-15.8a6.733,6.733,0,0,0,2.812-5.371V197.16C536.986,195.756,536.4,194.884,535.54,194.738Z" transform="translate(-503.771 -194.698)"/><g transform="translate(10.498 12.022)"><path class="b" d="M511.246,211.217l2.532-1.462a1.472,1.472,0,0,0,.612-1.171v-2.7c0-.452-.275-.658-.612-.463l-2.532,1.46a1.468,1.468,0,0,0-.612,1.171v2.705C510.634,211.2,510.908,211.413,511.246,211.217Z" transform="translate(-510.634 -200.458)"/><path class="d" d="M516.567,208.144l2.532-1.46a1.468,1.468,0,0,0,.612-1.172v-2.7c0-.45-.274-.658-.612-.463l-2.532,1.462a1.47,1.47,0,0,0-.612,1.171v2.7C515.955,208.133,516.23,208.339,516.567,208.144Z" transform="translate(-507.492 -202.272)"/></g></g><g transform="translate(90.466 142.479)"><path class="f" d="M506.845,273.045l27.592-15.8a6.736,6.736,0,0,0,2.812-5.372v-9.867c0-2.071-1.26-3.022-2.812-2.125l-27.592,15.8a6.733,6.733,0,0,0-2.812,5.371v9.867C504.033,272.989,505.293,273.94,506.845,273.045Z" transform="translate(-504.033 -239.546)"/><path class="d" d="M535.54,239.571a2.75,2.75,0,0,1,.7,2.052v9.867a6.734,6.734,0,0,1-2.81,5.372l-27.592,15.8a2.023,2.023,0,0,1-1.366.3,1.675,1.675,0,0,0,2.106.073l27.592-15.8a6.736,6.736,0,0,0,2.812-5.372v-9.867C536.986,240.587,536.4,239.716,535.54,239.571Z" transform="translate(-503.771 -239.531)"/><g transform="translate(10.498 12.022)"><path class="b" d="M511.246,256.049l2.532-1.462a1.47,1.47,0,0,0,.612-1.171v-2.7c0-.45-.275-.658-.612-.463l-2.532,1.462a1.465,1.465,0,0,0-.612,1.171v2.7C510.634,256.038,510.908,256.244,511.246,256.049Z" transform="translate(-510.634 -245.291)"/><path class="d" d="M516.567,252.977l2.532-1.462a1.465,1.465,0,0,0,.612-1.171v-2.7c0-.452-.274-.658-.612-.463l-2.532,1.46a1.473,1.473,0,0,0-.612,1.172v2.7C515.955,252.964,516.23,253.173,516.567,252.977Z" transform="translate(-507.492 -247.105)"/></g></g><g transform="translate(90.466 178.129)"><path class="f" d="M506.845,295.461l27.592-15.8a6.736,6.736,0,0,0,2.812-5.372v-9.867c0-2.071-1.26-3.022-2.812-2.125l-27.592,15.8a6.733,6.733,0,0,0-2.812,5.371v9.868C504.033,295.4,505.293,296.357,506.845,295.461Z" transform="translate(-504.033 -261.962)"/><path class="d" d="M535.54,261.987a2.75,2.75,0,0,1,.7,2.052v9.868a6.734,6.734,0,0,1-2.81,5.371l-27.592,15.8a2.023,2.023,0,0,1-1.366.3,1.675,1.675,0,0,0,2.106.073l27.592-15.8a6.736,6.736,0,0,0,2.812-5.372v-9.867C536.986,263,536.4,262.133,535.54,261.987Z" transform="translate(-503.771 -261.947)"/><g transform="translate(10.498 12.022)"><path class="b" d="M511.246,278.465,513.778,277a1.467,1.467,0,0,0,.612-1.171v-2.7c0-.45-.275-.658-.612-.463l-2.532,1.462a1.465,1.465,0,0,0-.612,1.171V278C510.634,278.454,510.908,278.66,511.246,278.465Z" transform="translate(-510.634 -267.707)"/><path class="d" d="M516.567,275.393l2.532-1.462a1.465,1.465,0,0,0,.612-1.171v-2.7c0-.452-.274-.658-.612-.463l-2.532,1.462a1.47,1.47,0,0,0-.612,1.17v2.7C515.955,275.38,516.23,275.589,516.567,275.393Z" transform="translate(-507.492 -269.521)"/></g></g><g transform="translate(90.466 106.829)"><path class="f" d="M506.845,250.629l27.592-15.8a6.731,6.731,0,0,0,2.812-5.371v-9.867c0-2.071-1.26-3.022-2.812-2.126l-27.592,15.8a6.731,6.731,0,0,0-2.812,5.371V248.5C504.033,250.573,505.293,251.524,506.845,250.629Z" transform="translate(-504.033 -217.129)"/><path class="d" d="M535.54,217.154a2.757,2.757,0,0,1,.7,2.053v9.867a6.734,6.734,0,0,1-2.81,5.372l-27.592,15.8a2.032,2.032,0,0,1-1.366.3,1.675,1.675,0,0,0,2.106.073l27.592-15.8a6.731,6.731,0,0,0,2.812-5.371v-9.867C536.986,218.172,536.4,217.3,535.54,217.154Z" transform="translate(-503.771 -217.115)"/><g transform="translate(10.498 12.021)"><path class="b" d="M511.246,233.633l2.532-1.462A1.47,1.47,0,0,0,514.39,231v-2.7c0-.452-.275-.658-.612-.463l-2.532,1.46a1.468,1.468,0,0,0-.612,1.172v2.7C510.634,233.62,510.908,233.829,511.246,233.633Z" transform="translate(-510.634 -222.874)"/><path class="d" d="M516.567,230.561,519.1,229.1a1.468,1.468,0,0,0,.612-1.171v-2.7c0-.452-.274-.66-.612-.464l-2.532,1.462a1.472,1.472,0,0,0-.612,1.171v2.7C515.955,230.549,516.23,230.755,516.567,230.561Z" transform="translate(-507.492 -224.688)"/></g></g><g transform="translate(3.144 38.497)"><path class="a" d="M515.362,230.243,451.707,193.49a6.175,6.175,0,0,1-2.58-4.929V176.424c0-1.9,1.155-2.774,2.58-1.95l63.655,36.752a6.176,6.176,0,0,1,2.581,4.929v12.138C517.943,230.193,516.787,231.066,515.362,230.243Z" transform="translate(-449.127 -174.164)"/><path class="g" d="M512.384,224.35l-60-34.642a3.13,3.13,0,0,1-1.309-2.5v-9.126c0-.964.585-1.408,1.309-.989l60,34.642a3.13,3.13,0,0,1,1.309,2.5v9.126C513.693,224.325,513.108,224.768,512.384,224.35Z" transform="translate(-447.977 -172.527)"/><path class="c" d="M463.556,189.84l-8.954-5.17a3.04,3.04,0,0,1-1.271-2.428h0c0-.935.568-1.366,1.271-.961l8.954,5.17a3.04,3.04,0,0,1,1.271,2.428h0C464.826,189.815,464.259,190.246,463.556,189.84Z" transform="translate(-446.645 -170.053)"/><path class="f" d="M465.647,189.329c0,.935-.657,1.314-1.468.846a3.245,3.245,0,0,1-1.466-2.541c0-.935.657-1.315,1.466-.848A3.243,3.243,0,0,1,465.647,189.329Z" transform="translate(-441.106 -166.83)"/><path class="f" d="M468.9,191.208c0,.937-.657,1.315-1.468.848a3.243,3.243,0,0,1-1.468-2.543c0-.935.657-1.315,1.468-.846A3.242,3.242,0,0,1,468.9,191.208Z" transform="translate(-439.184 -165.721)"/><path class="c" d="M472.158,193.088c0,.935-.657,1.315-1.468.846a3.242,3.242,0,0,1-1.466-2.541c0-.935.657-1.315,1.466-.848A3.245,3.245,0,0,1,472.158,193.088Z" transform="translate(-437.262 -164.611)"/><path class="f" d="M475.415,194.967c0,.937-.657,1.315-1.468.848a3.242,3.242,0,0,1-1.468-2.541c0-.937.657-1.315,1.468-.848A3.243,3.243,0,0,1,475.415,194.967Z" transform="translate(-435.34 -163.501)"/><path class="f" d="M489.462,206.229l-3.017-1.741a1.953,1.953,0,0,1-.816-1.559v-3.19c0-.6.366-.878.816-.617l3.017,1.741a1.953,1.953,0,0,1,.816,1.559v3.19C490.278,206.213,489.912,206.49,489.462,206.229Z" transform="translate(-427.577 -159.488)"/></g><g transform="translate(3.144 59.902)"><path class="a" d="M515.362,243.7,451.707,206.95a6.177,6.177,0,0,1-2.58-4.929V189.883c0-1.9,1.155-2.774,2.58-1.951l63.655,36.752a6.182,6.182,0,0,1,2.581,4.93v12.138C517.943,243.651,516.787,244.524,515.362,243.7Z" transform="translate(-449.127 -187.622)"/><path class="g" d="M512.384,237.809l-60-34.642a3.135,3.135,0,0,1-1.309-2.5v-9.126c0-.964.585-1.408,1.309-.991l60,34.643a3.13,3.13,0,0,1,1.309,2.5v9.126C513.693,237.784,513.108,238.226,512.384,237.809Z" transform="translate(-447.977 -185.986)"/><path class="c" d="M463.556,203.3l-8.954-5.17a3.042,3.042,0,0,1-1.271-2.429h0c0-.937.568-1.366,1.271-.961l8.954,5.17a3.038,3.038,0,0,1,1.271,2.429h0C464.826,203.274,464.259,203.7,463.556,203.3Z" transform="translate(-446.645 -183.511)"/><path class="d" d="M465.647,202.787c0,.937-.657,1.315-1.468.848a3.245,3.245,0,0,1-1.466-2.541c0-.937.657-1.315,1.466-.848A3.242,3.242,0,0,1,465.647,202.787Z" transform="translate(-441.106 -180.288)"/><path class="f" d="M468.9,204.667c0,.935-.657,1.315-1.468.846a3.24,3.24,0,0,1-1.468-2.541c0-.935.657-1.315,1.468-.846A3.24,3.24,0,0,1,468.9,204.667Z" transform="translate(-439.184 -179.179)"/><path class="c" d="M472.158,206.546c0,.937-.657,1.315-1.468.848a3.245,3.245,0,0,1-1.466-2.541c0-.937.657-1.315,1.466-.848A3.243,3.243,0,0,1,472.158,206.546Z" transform="translate(-437.262 -178.069)"/><path class="f" d="M475.415,208.426c0,.935-.657,1.315-1.468.848a3.245,3.245,0,0,1-1.468-2.543c0-.935.657-1.315,1.468-.846A3.24,3.24,0,0,1,475.415,208.426Z" transform="translate(-435.34 -176.959)"/><path class="f" d="M489.462,219.688l-3.017-1.741a1.955,1.955,0,0,1-.816-1.559V213.2c0-.6.366-.876.816-.615l3.017,1.741a1.952,1.952,0,0,1,.816,1.557v3.192C490.278,219.672,489.912,219.947,489.462,219.688Z" transform="translate(-427.577 -172.946)"/></g><g transform="translate(3.144 81.307)"><path class="a" d="M515.362,257.161l-63.655-36.752a6.177,6.177,0,0,1-2.58-4.929V203.341c0-1.9,1.155-2.772,2.58-1.95l63.655,36.752a6.178,6.178,0,0,1,2.581,4.929v12.138C517.943,257.11,516.787,257.983,515.362,257.161Z" transform="translate(-449.127 -201.081)"/><path class="g" d="M512.384,251.269l-60-34.642a3.135,3.135,0,0,1-1.309-2.5V205c0-.964.585-1.406,1.309-.989l60,34.642a3.136,3.136,0,0,1,1.309,2.5v9.124C513.693,251.243,513.108,251.685,512.384,251.269Z" transform="translate(-447.977 -199.445)"/><path class="c" d="M463.556,216.757l-8.954-5.169a3.042,3.042,0,0,1-1.271-2.428h0c0-.937.568-1.366,1.271-.961l8.954,5.169a3.043,3.043,0,0,1,1.271,2.429h0C464.826,216.733,464.259,217.162,463.556,216.757Z" transform="translate(-446.645 -196.97)"/><path class="d" d="M465.647,216.246c0,.935-.657,1.315-1.468.848a3.248,3.248,0,0,1-1.466-2.543c0-.935.657-1.315,1.466-.846A3.24,3.24,0,0,1,465.647,216.246Z" transform="translate(-441.106 -193.748)"/><path class="f" d="M468.9,218.126c0,.935-.657,1.315-1.468.846a3.242,3.242,0,0,1-1.468-2.541c0-.937.657-1.315,1.468-.848A3.243,3.243,0,0,1,468.9,218.126Z" transform="translate(-439.184 -192.638)"/><path class="c" d="M472.158,220c0,.935-.657,1.315-1.468.848a3.245,3.245,0,0,1-1.466-2.543c0-.935.657-1.314,1.466-.846A3.243,3.243,0,0,1,472.158,220Z" transform="translate(-437.262 -191.528)"/><path class="f" d="M475.415,221.885c0,.935-.657,1.315-1.468.846a3.24,3.24,0,0,1-1.468-2.541c0-.935.657-1.315,1.468-.848A3.243,3.243,0,0,1,475.415,221.885Z" transform="translate(-435.34 -190.419)"/><path class="f" d="M489.462,233.147l-3.017-1.743a1.952,1.952,0,0,1-.816-1.557v-3.192c0-.6.366-.876.816-.617l3.017,1.741a1.955,1.955,0,0,1,.816,1.559v3.192C490.278,233.13,489.912,233.406,489.462,233.147Z" transform="translate(-427.577 -186.405)"/></g><g transform="translate(3.144 102.712)"><path class="a" d="M515.362,270.62l-63.655-36.752a6.18,6.18,0,0,1-2.58-4.93V216.8c0-1.9,1.155-2.772,2.58-1.95L515.362,251.6a6.178,6.178,0,0,1,2.581,4.929v12.138C517.943,270.569,516.787,271.442,515.362,270.62Z" transform="translate(-449.127 -214.54)"/><path class="g" d="M512.384,264.726l-60-34.642a3.13,3.13,0,0,1-1.309-2.5v-9.126c0-.964.585-1.406,1.309-.989l60,34.642a3.131,3.131,0,0,1,1.309,2.5v9.124C513.693,264.7,513.108,265.144,512.384,264.726Z" transform="translate(-447.977 -212.904)"/><path class="c" d="M463.556,230.216l-8.954-5.17a3.04,3.04,0,0,1-1.271-2.429h0c0-.935.568-1.366,1.271-.961l8.954,5.17a3.04,3.04,0,0,1,1.271,2.429h0C464.826,230.191,464.259,230.622,463.556,230.216Z" transform="translate(-446.645 -210.429)"/><path class="f" d="M465.647,229.705c0,.935-.657,1.315-1.468.846a3.245,3.245,0,0,1-1.466-2.541c0-.935.657-1.315,1.466-.848A3.245,3.245,0,0,1,465.647,229.705Z" transform="translate(-441.106 -207.207)"/><path class="f" d="M468.9,231.584c0,.937-.657,1.315-1.468.848a3.243,3.243,0,0,1-1.468-2.541c0-.937.657-1.315,1.468-.848A3.242,3.242,0,0,1,468.9,231.584Z" transform="translate(-439.184 -206.097)"/><path class="c" d="M472.158,233.464c0,.935-.657,1.315-1.468.848a3.248,3.248,0,0,1-1.466-2.543c0-.935.657-1.315,1.466-.848A3.245,3.245,0,0,1,472.158,233.464Z" transform="translate(-437.262 -204.988)"/><path class="f" d="M475.415,235.343c0,.937-.657,1.315-1.468.848a3.243,3.243,0,0,1-1.468-2.541c0-.937.657-1.315,1.468-.848A3.242,3.242,0,0,1,475.415,235.343Z" transform="translate(-435.34 -203.878)"/><path class="c" d="M489.462,246.6l-3.017-1.741a1.953,1.953,0,0,1-.816-1.559v-3.19c0-.6.366-.878.816-.617l3.017,1.741a1.955,1.955,0,0,1,.816,1.559v3.192C490.278,246.589,489.912,246.866,489.462,246.6Z" transform="translate(-427.577 -199.864)"/></g><g transform="translate(3.144 124.116)"><path class="a" d="M515.362,284.078l-63.655-36.752a6.175,6.175,0,0,1-2.58-4.929V230.259c0-1.9,1.155-2.774,2.58-1.95l63.655,36.751a6.182,6.182,0,0,1,2.581,4.93v12.138C517.943,284.027,516.787,284.9,515.362,284.078Z" transform="translate(-449.127 -227.999)"/><path class="g" d="M512.384,278.185l-60-34.642a3.13,3.13,0,0,1-1.309-2.5v-9.126c0-.964.585-1.407,1.309-.989l60,34.642a3.13,3.13,0,0,1,1.309,2.5V277.2C513.693,278.16,513.108,278.6,512.384,278.185Z" transform="translate(-447.977 -226.362)"/><path class="c" d="M463.556,243.675,454.6,238.5a3.042,3.042,0,0,1-1.271-2.429h0c0-.935.568-1.366,1.271-.961l8.954,5.17a3.038,3.038,0,0,1,1.271,2.429h0C464.826,243.65,464.259,244.081,463.556,243.675Z" transform="translate(-446.645 -223.887)"/><path class="f" d="M465.647,243.163c0,.937-.657,1.315-1.468.848a3.245,3.245,0,0,1-1.466-2.541c0-.937.657-1.315,1.466-.848A3.243,3.243,0,0,1,465.647,243.163Z" transform="translate(-441.106 -220.665)"/><path class="d" d="M468.9,245.043c0,.935-.657,1.315-1.468.848a3.245,3.245,0,0,1-1.468-2.543c0-.935.657-1.315,1.468-.846A3.24,3.24,0,0,1,468.9,245.043Z" transform="translate(-439.184 -219.555)"/><path class="c" d="M472.158,246.922c0,.937-.657,1.317-1.468.848a3.245,3.245,0,0,1-1.466-2.541c0-.937.657-1.315,1.466-.848A3.243,3.243,0,0,1,472.158,246.922Z" transform="translate(-437.262 -218.446)"/><path class="d" d="M475.415,248.8c0,.937-.657,1.315-1.468.848a3.243,3.243,0,0,1-1.468-2.543c0-.935.657-1.315,1.468-.846A3.243,3.243,0,0,1,475.415,248.8Z" transform="translate(-435.34 -217.336)"/><path class="c" d="M489.462,260.064l-3.017-1.741a1.955,1.955,0,0,1-.816-1.559v-3.192c0-.6.366-.876.816-.615l3.017,1.741a1.953,1.953,0,0,1,.816,1.559v3.19C490.278,260.048,489.912,260.323,489.462,260.064Z" transform="translate(-427.577 -213.322)"/></g><g transform="translate(3.144 145.52)"><path class="a" d="M515.362,297.537l-63.655-36.752a6.177,6.177,0,0,1-2.58-4.929V243.717c0-1.9,1.155-2.772,2.58-1.95l63.655,36.752a6.178,6.178,0,0,1,2.581,4.929v12.139C517.943,297.486,516.787,298.359,515.362,297.537Z" transform="translate(-449.127 -241.457)"/><path class="g" d="M512.384,291.644l-60-34.642a3.135,3.135,0,0,1-1.309-2.5v-9.126c0-.962.585-1.406,1.309-.989l60,34.642a3.136,3.136,0,0,1,1.309,2.5v9.126C513.693,291.619,513.108,292.061,512.384,291.644Z" transform="translate(-447.977 -239.821)"/><path class="c" d="M463.556,257.133l-8.954-5.169a3.042,3.042,0,0,1-1.271-2.429h0c0-.937.568-1.366,1.271-.961l8.954,5.169a3.043,3.043,0,0,1,1.271,2.429h0C464.826,257.109,464.259,257.538,463.556,257.133Z" transform="translate(-446.645 -237.346)"/><path class="f" d="M465.647,256.622c0,.937-.657,1.315-1.468.848a3.248,3.248,0,0,1-1.466-2.543c0-.935.657-1.315,1.466-.846A3.243,3.243,0,0,1,465.647,256.622Z" transform="translate(-441.106 -234.124)"/><path class="f" d="M468.9,258.5c0,.935-.657,1.315-1.468.846a3.24,3.24,0,0,1-1.468-2.541c0-.935.657-1.315,1.468-.848A3.245,3.245,0,0,1,468.9,258.5Z" transform="translate(-439.184 -233.014)"/><path class="c" d="M472.158,260.381c0,.937-.657,1.315-1.468.848a3.245,3.245,0,0,1-1.466-2.541c0-.937.657-1.315,1.466-.848A3.242,3.242,0,0,1,472.158,260.381Z" transform="translate(-437.262 -231.904)"/><path class="f" d="M475.415,262.261c0,.935-.657,1.315-1.468.848a3.245,3.245,0,0,1-1.468-2.543c0-.935.657-1.315,1.468-.848A3.245,3.245,0,0,1,475.415,262.261Z" transform="translate(-435.34 -230.795)"/><path class="f" d="M489.462,273.523l-3.017-1.741a1.958,1.958,0,0,1-.816-1.559v-3.192c0-.6.366-.876.816-.617l3.017,1.741a1.958,1.958,0,0,1,.816,1.559v3.192C490.278,273.507,489.912,273.782,489.462,273.523Z" transform="translate(-427.577 -226.781)"/></g><g transform="translate(3.144 166.925)"><path class="a" d="M515.362,311l-63.655-36.752a6.178,6.178,0,0,1-2.58-4.93V257.176c0-1.9,1.155-2.772,2.58-1.95l63.655,36.752a6.179,6.179,0,0,1,2.581,4.929v12.138C517.943,310.945,516.787,311.818,515.362,311Z" transform="translate(-449.127 -254.916)"/><path class="g" d="M512.384,305.1l-60-34.642a3.13,3.13,0,0,1-1.309-2.5v-9.126c0-.964.585-1.406,1.309-.989l60,34.642a3.133,3.133,0,0,1,1.309,2.5v9.124C513.693,305.076,513.108,305.52,512.384,305.1Z" transform="translate(-447.977 -253.28)"/><path class="c" d="M463.556,270.592l-8.954-5.17a3.038,3.038,0,0,1-1.271-2.429h0c0-.935.568-1.365,1.271-.961l8.954,5.17a3.043,3.043,0,0,1,1.271,2.429h0C464.826,270.566,464.259,271,463.556,270.592Z" transform="translate(-446.645 -250.805)"/><ellipse class="d" cx="2.263" cy="3.92" rx="2.263" ry="3.92" transform="matrix(0.866, -0.5, 0.5, 0.866, 19.485, 19.793)"/><path class="f" d="M473.42,274.755c0,.935-.657,1.315-1.468.848a3.249,3.249,0,0,1-1.468-2.543c0-.935.658-1.315,1.468-.846A3.24,3.24,0,0,1,473.42,274.755Z" transform="translate(-436.518 -244.823)"/><path class="c" d="M476.676,276.634c0,.937-.658,1.315-1.468.848a3.242,3.242,0,0,1-1.468-2.541c0-.937.657-1.315,1.468-.848A3.247,3.247,0,0,1,476.676,276.634Z" transform="translate(-434.596 -243.714)"/><path class="f" d="M479.931,278.514c0,.935-.657,1.315-1.468.848a3.25,3.25,0,0,1-1.468-2.543c0-.935.658-1.315,1.468-.846A3.242,3.242,0,0,1,479.931,278.514Z" transform="translate(-432.674 -242.604)"/><path class="c" d="M489.462,286.981l-3.017-1.741a1.953,1.953,0,0,1-.816-1.559v-3.19c0-.6.366-.876.816-.617l3.017,1.741a1.955,1.955,0,0,1,.816,1.559v3.192C490.278,286.965,489.912,287.241,489.462,286.981Z" transform="translate(-427.577 -240.24)"/></g></g><path class="a" d="M424.543,286.859a.926.926,0,0,1-.464-1.727l12.556-7.262a4.638,4.638,0,0,0,2.309-4v-6.646a.926.926,0,0,1,1.851,0v6.646a6.492,6.492,0,0,1-3.235,5.6L425,286.735A.93.93,0,0,1,424.543,286.859Z" transform="translate(89.665 135.456)"/><g transform="translate(478.165 417.134)"><g transform="translate(0)"><g transform="translate(21.121)"><rect class="a" width="7.644" height="16.494" transform="matrix(0.497, 0.867, -0.867, 0.497, 14.309, 0.178)"/><path class="a" d="M428.708,281.03a5.979,5.979,0,0,0-2.688-4.69c-1.49-.865-2.7-.17-2.708,1.552A5.972,5.972,0,0,0,426,282.581C427.492,283.448,428.7,282.753,428.708,281.03Z" transform="translate(-409.801 -275.968)"/></g><g transform="translate(0 4.256)"><rect class="a" width="12.386" height="25.869" transform="matrix(0.497, 0.867, -0.867, 0.497, 22.442, 0.636)"/><path class="b" d="M416.3,281.421l4.843-2.777a9.885,9.885,0,0,1,3.8,6.63l-4.843,2.777A9.892,9.892,0,0,1,416.3,281.421Z" transform="translate(-392.821 -278.644)"/><path class="a" d="M423.577,287.065a9.673,9.673,0,0,0-4.356-7.6c-2.414-1.4-4.378-.278-4.386,2.514a9.678,9.678,0,0,0,4.356,7.6C421.605,290.983,423.569,289.857,423.577,287.065Z" transform="translate(-393.684 -278.515)"/></g></g><path class="c" d="M425,278.694a.772.772,0,0,0,0-1.463,2.8,2.8,0,0,0-2.537-.008.773.773,0,0,0,0,1.465A2.8,2.8,0,0,0,425,278.694Z" transform="translate(-389.487 -275.404)"/></g><path class="a" d="M307.475,340.808a.906.906,0,0,1-.46-.122l-11-6.33a2.9,2.9,0,0,1,.052-5.061l71.265-39.019a20.471,20.471,0,0,0,10.644-17.962V183.749a4.293,4.293,0,0,0-6.347-3.768l-23.759,12.955a.925.925,0,0,1-.886-1.624l23.759-12.957a6.144,6.144,0,0,1,9.084,5.393v88.565A22.321,22.321,0,0,1,368.225,291.9l-71.264,39.019a1.052,1.052,0,0,0-.021,1.832l11,6.328a.926.926,0,0,1-.463,1.729Z" transform="translate(13.474 83.089)"/><g transform="translate(328.449 269.366)"><g transform="translate(0)"><g transform="translate(21.122)"><rect class="a" width="7.643" height="16.494" transform="translate(14.308 0.178) rotate(60.168)"/><path class="a" d="M334.57,188.116a5.975,5.975,0,0,0-2.688-4.688c-1.49-.865-2.7-.172-2.707,1.552a5.966,5.966,0,0,0,2.688,4.688C333.353,190.535,334.565,189.84,334.57,188.116Z" transform="translate(-315.663 -183.055)"/></g><g transform="translate(0 4.256)"><rect class="a" width="12.386" height="25.869" transform="matrix(0.497, 0.867, -0.867, 0.497, 22.442, 0.636)"/><path class="b" d="M322.159,188.508,327,185.731a9.879,9.879,0,0,1,3.8,6.63l-4.843,2.777A9.884,9.884,0,0,1,322.159,188.508Z" transform="translate(-298.683 -185.731)"/><path class="a" d="M329.441,194.152a9.679,9.679,0,0,0-4.358-7.6c-2.414-1.4-4.378-.278-4.386,2.514a9.678,9.678,0,0,0,4.356,7.6C327.469,198.07,329.431,196.944,329.441,194.152Z" transform="translate(-299.546 -185.602)"/></g></g><path class="c" d="M330.864,185.781a.772.772,0,0,0,0-1.463,2.8,2.8,0,0,0-2.535-.008.772.772,0,0,0,0,1.463A2.8,2.8,0,0,0,330.864,185.781Z" transform="translate(-295.349 -182.491)"/></g><g transform="translate(313.04 416.089)"><rect class="a" width="7.644" height="16.494" transform="matrix(-0.497, 0.867, -0.867, -0.497, 18.907, 8.382)"/><path class="a" d="M297.709,280.372a5.976,5.976,0,0,1,2.689-4.688c1.489-.865,2.7-.17,2.707,1.552a5.972,5.972,0,0,1-2.689,4.688C298.926,282.791,297.714,282.1,297.709,280.372Z" transform="translate(-297.709 -275.311)"/><g transform="translate(7.909 4.256)"><rect class="a" width="12.386" height="25.869" transform="translate(32.12 13.505) rotate(119.831)"/><path class="b" d="M311.327,280.764l-4.843-2.777a9.889,9.889,0,0,0-3.8,6.63l4.843,2.777A9.892,9.892,0,0,0,311.327,280.764Z" transform="translate(-302.682 -277.987)"/><path class="a" d="M304.082,286.408a9.673,9.673,0,0,1,4.356-7.6c2.414-1.4,4.378-.278,4.386,2.514a9.678,9.678,0,0,1-4.356,7.6C306.054,290.326,304.09,289.2,304.082,286.408Z" transform="translate(-301.855 -277.858)"/></g><path class="c" d="M300.743,278.037a.772.772,0,0,1,0-1.463,2.8,2.8,0,0,1,2.537-.008.773.773,0,0,1,0,1.465A2.8,2.8,0,0,1,300.743,278.037Z" transform="translate(-296.229 -274.747)"/></g><g transform="translate(293.44 387.329)"><path class="c" d="M446.386,436.539,288.4,345.328c-4.469-2.581-3.909-7.088,1.252-10.067l107.575-62.089c5.161-2.979,12.966-3.3,17.435-.722l157.984,91.212c4.469,2.58,3.909,7.087-1.252,10.067L463.822,435.816C458.661,438.8,450.855,439.119,446.386,436.539Z" transform="translate(-285.385 -249.269)"/><path class="f" d="M575.66,350.028l-21.594-2.852-139.4-80.485c-4.469-2.58-12.275-2.255-17.435.724l-98.78,57.011L285.389,322.7v7.41l.013,0c-.086,1.713.889,3.359,3,4.577L446.384,425.9c4.469,2.58,12.275,2.257,17.435-.722l107.575-62.089c2.9-1.676,4.351-3.836,4.265-5.864h0Z" transform="translate(-285.382 -252.668)"/><path class="b" d="M470.919,288.591l-9.9-5.719H352.126l-53.68,30.973-13.057-1.726v7.41l.013,0c-.086,1.713.889,3.359,3,4.577l157.984,91.212a16.343,16.343,0,0,0,9,1.686Z" transform="translate(-285.382 -242.087)"/><path class="a" d="M291.183,302.027l-5.794-.765v7.41l.013,0c-.086,1.713.889,3.359,3,4.577l2.783,1.608Z" transform="translate(-285.382 -231.23)"/><path class="h" d="M387.619,373.094a20.231,20.231,0,0,0,14.814-.921V355.647H387.619Z" transform="translate(-225.027 -199.122)"/><path class="c" d="M446.386,423.059,288.4,331.848c-4.469-2.581-3.909-7.088,1.252-10.067l107.575-62.089c5.161-2.979,12.966-3.3,17.435-.722l157.984,91.212c4.469,2.58,3.909,7.087-1.252,10.067L463.822,422.336C458.661,425.316,450.855,425.639,446.386,423.059Z" transform="translate(-285.385 -257.227)"/><path class="d" d="M571.393,331.974,463.818,394.063c-5.161,2.979-12.966,3.3-17.435.722L288.4,303.573a5.884,5.884,0,0,1-2.778-3.039c-.7,2.114.192,4.251,2.778,5.746l157.984,91.212c4.469,2.58,12.275,2.257,17.435-.724l107.575-62.087c3.469-2,4.849-4.695,4.03-7.028A8.4,8.4,0,0,1,571.393,331.974Z" transform="translate(-285.381 -231.66)"/><g transform="translate(62.674 5.617)"><path class="f" d="M332.328,289.1l-7.147-4.127c-.574-.332-.5-.911.161-1.293l8.437-4.871a2.484,2.484,0,0,1,2.239-.092l7.147,4.125c.574.332.5.911-.161,1.293L334.567,289A2.489,2.489,0,0,1,332.328,289.1Z" transform="translate(-324.793 -250.292)"/><path class="f" d="M339.269,293.1l-7.147-4.127c-.574-.331-.5-.91.161-1.293l8.437-4.871a2.493,2.493,0,0,1,2.239-.092l7.147,4.127c.574.331.5.91-.161,1.293l-8.437,4.871A2.494,2.494,0,0,1,339.269,293.1Z" transform="translate(-320.695 -247.926)"/><path class="f" d="M346.21,297.112l-7.147-4.127c-.574-.331-.5-.91.161-1.291l8.437-4.871a2.489,2.489,0,0,1,2.239-.094l7.147,4.127c.574.332.5.91-.161,1.293l-8.437,4.871A2.484,2.484,0,0,1,346.21,297.112Z" transform="translate(-316.597 -245.56)"/><path class="f" d="M355.81,293.513l-7.149-4.127c-.574-.331-.5-.91.161-1.293L355.906,284a2.483,2.483,0,0,1,2.239-.092l7.147,4.125c.574.332.5.911-.161,1.293l-7.082,4.091A2.493,2.493,0,0,1,355.81,293.513Z" transform="translate(-310.93 -247.224)"/><path class="f" d="M362.752,297.519l-7.149-4.127c-.574-.331-.5-.91.161-1.291l7.084-4.09a2.494,2.494,0,0,1,2.239-.092l7.147,4.127c.574.331.5.91-.161,1.293l-7.082,4.089A2.484,2.484,0,0,1,362.752,297.519Z" transform="translate(-306.832 -244.857)"/><path class="f" d="M369.692,301.528l-7.149-4.127c-.573-.332-.5-.91.161-1.293l7.083-4.089a2.489,2.489,0,0,1,2.239-.094l7.147,4.127c.574.332.5.911-.161,1.293l-7.082,4.089A2.489,2.489,0,0,1,369.692,301.528Z" transform="translate(-302.734 -242.492)"/><path class="f" d="M376.633,305.534l-7.149-4.127c-.573-.331-.5-.91.161-1.293l7.084-4.089a2.488,2.488,0,0,1,2.239-.092l7.147,4.127c.574.331.5.91-.161,1.293l-7.082,4.089A2.489,2.489,0,0,1,376.633,305.534Z" transform="translate(-298.636 -240.126)"/><path class="f" d="M383.574,309.541l-7.149-4.125c-.573-.332-.5-.911.161-1.293l7.084-4.089a2.489,2.489,0,0,1,2.239-.094l7.147,4.127c.574.332.5.91-.161,1.293l-7.082,4.089A2.484,2.484,0,0,1,383.574,309.541Z" transform="translate(-294.538 -237.76)"/><path class="f" d="M390.515,313.55l-7.149-4.127c-.573-.331-.5-.91.161-1.293l7.084-4.089a2.484,2.484,0,0,1,2.239-.092L400,308.074c.574.332.5.911-.161,1.293l-7.082,4.089A2.489,2.489,0,0,1,390.515,313.55Z" transform="translate(-290.441 -235.394)"/><path class="f" d="M397.456,317.556l-7.149-4.127c-.573-.331-.5-.91.161-1.293l7.084-4.089a2.493,2.493,0,0,1,2.239-.092l7.147,4.127c.574.331.5.91-.161,1.293l-7.082,4.089A2.488,2.488,0,0,1,397.456,317.556Z" transform="translate(-286.343 -233.028)"/><path class="f" d="M404.4,321.565l-7.149-4.127c-.573-.332-.5-.911.162-1.293l7.082-4.089a2.489,2.489,0,0,1,2.239-.094l7.147,4.127c.574.332.5.911-.161,1.293l-7.082,4.089A2.489,2.489,0,0,1,404.4,321.565Z" transform="translate(-282.245 -230.662)"/><path class="f" d="M411.338,325.571l-7.149-4.127c-.573-.331-.5-.91.162-1.293l7.082-4.089a2.489,2.489,0,0,1,2.239-.092l7.147,4.127c.574.331.5.91-.161,1.291l-7.082,4.09A2.494,2.494,0,0,1,411.338,325.571Z" transform="translate(-278.147 -228.296)"/><path class="f" d="M418.279,329.578l-7.149-4.125c-.573-.332-.5-.911.162-1.293l7.082-4.089a2.489,2.489,0,0,1,2.239-.094l7.147,4.127c.574.331.5.91-.161,1.293l-7.082,4.089A2.483,2.483,0,0,1,418.279,329.578Z" transform="translate(-274.049 -225.93)"/><path class="b" d="M366.037,291.616l-7.147-4.127c-.574-.332-.5-.911.161-1.293l7.082-4.089a2.489,2.489,0,0,1,2.239-.094l7.149,4.127c.572.332.5.911-.162,1.293l-7.082,4.089A2.489,2.489,0,0,1,366.037,291.616Z" transform="translate(-304.892 -248.344)"/><path class="b" d="M358.992,287.549l-7.147-4.129c-.574-.331-.5-.91.161-1.291l7.082-4.09a2.494,2.494,0,0,1,2.239-.092l7.149,4.127c.574.331.5.91-.161,1.293l-7.084,4.089A2.489,2.489,0,0,1,358.992,287.549Z" transform="translate(-309.051 -250.745)"/><path class="f" d="M355,285.242,339.6,276.354c-.574-.332-.5-.91.161-1.293l7.084-4.089a2.489,2.489,0,0,1,2.239-.094l15.395,8.889c.574.332.5.91-.161,1.293l-7.084,4.089A2.489,2.489,0,0,1,355,285.242Z" transform="translate(-316.278 -254.918)"/><path class="f" d="M358.854,279.665l-12.494-7.212c-.574-.332-.5-.91.161-1.293l7.082-4.089a2.489,2.489,0,0,1,2.239-.094l12.494,7.214c.574.331.5.91-.161,1.293l-7.084,4.089A2.48,2.48,0,0,1,358.854,279.665Z" transform="translate(-312.289 -257.221)"/><path class="b" d="M372.978,295.622l-7.147-4.127c-.574-.331-.5-.91.161-1.293l7.082-4.089a2.489,2.489,0,0,1,2.239-.092l7.149,4.127c.572.331.5.91-.162,1.293l-7.082,4.089A2.493,2.493,0,0,1,372.978,295.622Z" transform="translate(-300.794 -245.978)"/><path class="f" d="M379.919,299.631l-7.147-4.129c-.574-.331-.5-.91.161-1.291l7.082-4.09a2.493,2.493,0,0,1,2.239-.092l7.149,4.127c.573.331.5.91-.162,1.293l-7.082,4.089A2.489,2.489,0,0,1,379.919,299.631Z" transform="translate(-296.696 -243.612)"/><path class="f" d="M386.86,303.638l-7.147-4.127c-.574-.331-.5-.91.161-1.293l7.082-4.089a2.484,2.484,0,0,1,2.239-.092l7.149,4.125c.573.332.5.911-.162,1.293l-7.082,4.089A2.489,2.489,0,0,1,386.86,303.638Z" transform="translate(-292.598 -241.246)"/><path class="f" d="M393.8,307.644l-7.147-4.127c-.574-.331-.5-.91.161-1.293l7.082-4.089a2.489,2.489,0,0,1,2.239-.092l7.149,4.127c.573.331.5.91-.162,1.293l-7.082,4.089A2.484,2.484,0,0,1,393.8,307.644Z" transform="translate(-288.5 -238.88)"/><path class="f" d="M400.742,311.653l-7.147-4.127c-.574-.332-.5-.911.161-1.293l7.082-4.089a2.489,2.489,0,0,1,2.239-.094l7.149,4.127c.573.332.5.91-.162,1.293l-7.082,4.089A2.489,2.489,0,0,1,400.742,311.653Z" transform="translate(-284.403 -236.514)"/><path class="f" d="M407.683,315.659l-7.147-4.127c-.574-.331-.5-.91.161-1.293l7.082-4.089a2.489,2.489,0,0,1,2.239-.092l7.149,4.127c.573.331.5.91-.162,1.293l-7.082,4.089A2.494,2.494,0,0,1,407.683,315.659Z" transform="translate(-280.305 -234.148)"/><path class="f" d="M414.624,319.666l-7.147-4.125c-.574-.332-.5-.911.161-1.293l7.082-4.09a2.493,2.493,0,0,1,2.239-.092l7.149,4.127c.573.331.5.91-.162,1.293l-7.082,4.089A2.483,2.483,0,0,1,414.624,319.666Z" transform="translate(-276.207 -231.782)"/><path class="f" d="M421.565,323.675l-7.147-4.127c-.574-.332-.5-.91.161-1.293l7.082-4.089a2.484,2.484,0,0,1,2.239-.092l7.149,4.126c.573.332.5.911-.162,1.293l-7.082,4.089A2.489,2.489,0,0,1,421.565,323.675Z" transform="translate(-272.109 -229.416)"/><path class="f" d="M428.506,327.681l-7.147-4.127c-.574-.331-.5-.91.161-1.293l7.082-4.089a2.489,2.489,0,0,1,2.239-.092l7.149,4.127c.573.331.5.91-.162,1.293l-7.082,4.089A2.489,2.489,0,0,1,428.506,327.681Z" transform="translate(-268.011 -227.051)"/><path class="f" d="M443.983,336.617l-15.6-9c-.574-.332-.5-.911.161-1.293l7.082-4.089a2.489,2.489,0,0,1,2.239-.094l15.6,9c.574.331.5.91-.161,1.293l-7.082,4.089A2.489,2.489,0,0,1,443.983,336.617Z" transform="translate(-263.862 -224.655)"/><path class="f" d="M456.593,328.294l-13.164-7.6c-.574-.332-.5-.911.161-1.293l7.082-4.089a2.489,2.489,0,0,1,2.239-.094l13.164,7.6c.574.332.5.911-.161,1.293l-7.082,4.089A2.489,2.489,0,0,1,456.593,328.294Z" transform="translate(-254.981 -228.74)"/><path class="f" d="M385.133,294.839l-7.147-4.127c-.574-.331-.5-.91.161-1.293l7.082-4.089a2.484,2.484,0,0,1,2.239-.092l7.149,4.127c.574.331.5.91-.161,1.293l-7.084,4.089A2.494,2.494,0,0,1,385.133,294.839Z" transform="translate(-293.618 -246.441)"/><path class="f" d="M378.021,290.732l-7.149-4.127c-.574-.331-.5-.91.161-1.293l7.084-4.089a2.48,2.48,0,0,1,2.238-.092l7.149,4.127c.574.331.5.91-.161,1.291l-7.082,4.09A2.494,2.494,0,0,1,378.021,290.732Z" transform="translate(-297.818 -248.865)"/><path class="b" d="M370.907,286.625l-7.149-4.127c-.574-.332-.5-.91.161-1.293L371,277.116a2.489,2.489,0,0,1,2.239-.094l7.147,4.127c.574.332.5.911-.161,1.293l-7.082,4.09A2.493,2.493,0,0,1,370.907,286.625Z" transform="translate(-302.018 -251.29)"/><path class="f" d="M363.792,282.518l-7.147-4.127c-.574-.332-.5-.91.161-1.293l7.082-4.089a2.489,2.489,0,0,1,2.239-.094l7.149,4.127c.574.332.5.911-.161,1.293l-7.084,4.089A2.489,2.489,0,0,1,363.792,282.518Z" transform="translate(-306.217 -253.715)"/><path class="f" d="M392.074,298.845l-7.147-4.127c-.574-.331-.5-.91.161-1.291l7.082-4.09a2.493,2.493,0,0,1,2.239-.092l7.149,4.127c.574.331.5.91-.161,1.293l-7.084,4.089A2.483,2.483,0,0,1,392.074,298.845Z" transform="translate(-289.52 -244.075)"/><path class="f" d="M399.015,302.854l-7.147-4.127c-.574-.332-.5-.911.161-1.293l7.082-4.089a2.489,2.489,0,0,1,2.239-.094l7.149,4.127c.574.332.5.911-.161,1.293l-7.084,4.089A2.489,2.489,0,0,1,399.015,302.854Z" transform="translate(-285.422 -241.709)"/><path class="f" d="M405.956,306.86l-7.147-4.127c-.574-.331-.5-.91.161-1.293l7.082-4.089a2.488,2.488,0,0,1,2.239-.092l7.149,4.127c.574.331.5.91-.161,1.293l-7.084,4.089A2.494,2.494,0,0,1,405.956,306.86Z" transform="translate(-281.324 -239.343)"/><path class="f" d="M412.9,310.869l-7.147-4.127c-.574-.332-.5-.911.161-1.293l7.082-4.089a2.489,2.489,0,0,1,2.239-.094l7.149,4.127c.574.332.5.91-.161,1.293l-7.084,4.089A2.489,2.489,0,0,1,412.9,310.869Z" transform="translate(-277.226 -236.977)"/><path class="f" d="M419.838,314.875l-7.147-4.127c-.574-.331-.5-.91.161-1.293l7.082-4.089a2.484,2.484,0,0,1,2.239-.092l7.149,4.127c.574.331.5.91-.161,1.291l-7.084,4.09A2.493,2.493,0,0,1,419.838,314.875Z" transform="translate(-273.129 -234.611)"/><path class="f" d="M426.779,318.882l-7.147-4.127c-.574-.331-.5-.91.161-1.291l7.082-4.09a2.493,2.493,0,0,1,2.239-.092l7.149,4.127c.574.331.5.91-.161,1.293l-7.084,4.089A2.483,2.483,0,0,1,426.779,318.882Z" transform="translate(-269.031 -232.245)"/><path class="f" d="M433.72,322.891l-7.147-4.127c-.574-.332-.5-.911.161-1.293l7.082-4.089a2.489,2.489,0,0,1,2.239-.094l7.149,4.127c.574.332.5.911-.161,1.293l-7.084,4.089A2.489,2.489,0,0,1,433.72,322.891Z" transform="translate(-264.933 -229.879)"/><path class="f" d="M440.661,326.9l-7.147-4.127c-.574-.331-.5-.91.161-1.293l7.082-4.089A2.488,2.488,0,0,1,443,317.3l7.149,4.127c.574.331.5.91-.161,1.293l-7.084,4.089A2.493,2.493,0,0,1,440.661,326.9Z" transform="translate(-260.835 -227.513)"/><path class="f" d="M447.6,330.906l-7.147-4.127c-.574-.332-.5-.911.161-1.293l7.082-4.09a2.494,2.494,0,0,1,2.239-.092l7.149,4.127c.574.332.5.91-.161,1.293l-7.084,4.089A2.489,2.489,0,0,1,447.6,330.906Z" transform="translate(-256.737 -225.147)"/><path class="f" d="M381.478,284.927l-7.147-4.127c-.574-.331-.5-.91.161-1.293l7.082-4.089a2.484,2.484,0,0,1,2.239-.092l7.149,4.127c.574.331.5.91-.161,1.291l-7.084,4.091A2.493,2.493,0,0,1,381.478,284.927Z" transform="translate(-295.776 -252.293)"/><path class="f" d="M374.573,280.94l-7.149-4.127c-.574-.332-.5-.911.161-1.293l7.084-4.09a2.493,2.493,0,0,1,2.239-.092l7.147,4.127c.574.331.5.91-.161,1.293l-7.082,4.089A2.489,2.489,0,0,1,374.573,280.94Z" transform="translate(-299.853 -254.647)"/><path class="f" d="M367.665,276.952l-7.147-4.127c-.574-.331-.5-.91.161-1.293l7.082-4.089A2.484,2.484,0,0,1,370,267.35l7.149,4.127c.574.331.5.91-.161,1.293l-7.084,4.089A2.493,2.493,0,0,1,367.665,276.952Z" transform="translate(-303.931 -257.001)"/><path class="f" d="M360.759,272.965l-7.149-4.127c-.573-.332-.5-.911.161-1.293l7.084-4.089a2.489,2.489,0,0,1,2.239-.094l7.147,4.127c.574.331.5.911-.161,1.293L363,272.871A2.489,2.489,0,0,1,360.759,272.965Z" transform="translate(-308.008 -259.355)"/><path class="f" d="M367.861,267.847l-7.149-4.127c-.574-.331-.5-.91.161-1.291l2.343-1.353a2.493,2.493,0,0,1,2.239-.092l7.147,4.127c.574.331.5.91-.161,1.293l-2.341,1.352A2.484,2.484,0,0,1,367.861,267.847Z" transform="translate(-303.815 -260.759)"/><path class="f" d="M376.874,273.051l-7.149-4.127c-.574-.331-.5-.91.161-1.293l2.343-1.352a2.483,2.483,0,0,1,2.239-.092l7.147,4.127c.574.331.5.91-.161,1.293l-2.341,1.352A2.494,2.494,0,0,1,376.874,273.051Z" transform="translate(-298.494 -257.688)"/><path class="f" d="M383.753,277.022,376.6,272.9c-.574-.332-.5-.911.161-1.293l2.341-1.352a2.484,2.484,0,0,1,2.239-.092l7.149,4.127c.574.331.5.91-.161,1.291l-2.341,1.352A2.489,2.489,0,0,1,383.753,277.022Z" transform="translate(-294.434 -255.343)"/><path class="f" d="M390.629,280.994l-7.147-4.127c-.574-.332-.5-.911.161-1.293l2.341-1.352a2.489,2.489,0,0,1,2.239-.094l7.149,4.127c.573.332.5.911-.162,1.293l-2.341,1.352A2.489,2.489,0,0,1,390.629,280.994Z" transform="translate(-290.373 -252.999)"/><path class="f" d="M397.507,284.963l-7.149-4.125c-.573-.332-.5-.911.161-1.293l2.343-1.352a2.489,2.489,0,0,1,2.239-.094l7.147,4.127c.574.332.5.911-.161,1.293l-2.341,1.352A2.483,2.483,0,0,1,397.507,284.963Z" transform="translate(-286.313 -250.654)"/><path class="f" d="M435.9,307.132l-7.147-4.127c-.574-.331-.5-.91.161-1.293l2.341-1.352a2.489,2.489,0,0,1,2.239-.092l7.147,4.127c.574.331.5.91-.161,1.293l-2.341,1.352A2.493,2.493,0,0,1,435.9,307.132Z" transform="translate(-263.643 -237.566)"/><path class="f" d="M442.783,311.1l-7.149-4.127c-.574-.331-.5-.91.161-1.293l2.343-1.352a2.48,2.48,0,0,1,2.238-.092l7.149,4.127c.574.331.5.91-.161,1.291l-2.341,1.352A2.489,2.489,0,0,1,442.783,311.1Z" transform="translate(-259.583 -235.222)"/><path class="f" d="M449.661,315.075l-7.149-4.127c-.574-.332-.5-.91.161-1.293l2.341-1.352a2.489,2.489,0,0,1,2.239-.094l7.149,4.129c.574.331.5.91-.161,1.291l-2.343,1.352A2.485,2.485,0,0,1,449.661,315.075Z" transform="translate(-255.523 -232.878)"/><path class="f" d="M456.537,319.044l-7.147-4.125c-.574-.332-.5-.911.161-1.293l2.341-1.352a2.489,2.489,0,0,1,2.239-.094l7.147,4.127c.574.332.5.911-.161,1.293l-2.341,1.352A2.483,2.483,0,0,1,456.537,319.044Z" transform="translate(-251.462 -230.533)"/><path class="f" d="M388.419,288.933l-7.147-4.127c-.574-.331-.5-.91.161-1.293l7.082-4.089a2.493,2.493,0,0,1,2.239-.092l7.149,4.127c.574.331.5.91-.161,1.293l-7.084,4.089A2.484,2.484,0,0,1,388.419,288.933Z" transform="translate(-291.678 -249.927)"/><path class="f" d="M395.36,292.942l-7.147-4.127c-.574-.332-.5-.911.161-1.293l7.082-4.089a2.489,2.489,0,0,1,2.239-.094l7.149,4.127c.574.332.5.911-.161,1.293l-7.084,4.089A2.488,2.488,0,0,1,395.36,292.942Z" transform="translate(-287.58 -247.561)"/><path class="f" d="M402.3,296.948l-7.147-4.127c-.574-.331-.5-.91.161-1.293l7.082-4.089a2.488,2.488,0,0,1,2.239-.092l7.149,4.127c.574.331.5.91-.161,1.293l-7.084,4.089A2.493,2.493,0,0,1,402.3,296.948Z" transform="translate(-283.482 -245.195)"/><path class="f" d="M409.242,300.957l-7.147-4.127c-.574-.332-.5-.911.161-1.293l7.082-4.089a2.489,2.489,0,0,1,2.239-.094l7.149,4.127c.574.331.5.91-.161,1.293l-7.084,4.089A2.489,2.489,0,0,1,409.242,300.957Z" transform="translate(-279.384 -242.829)"/><path class="f" d="M416.183,304.964l-7.147-4.127c-.574-.331-.5-.91.161-1.293l7.082-4.089a2.484,2.484,0,0,1,2.239-.092l7.149,4.127c.574.331.5.91-.161,1.291l-7.084,4.09A2.494,2.494,0,0,1,416.183,304.964Z" transform="translate(-275.286 -240.463)"/><path class="f" d="M423.124,308.97l-7.147-4.127c-.574-.331-.5-.91.161-1.291l7.082-4.09a2.493,2.493,0,0,1,2.239-.092l7.149,4.127c.574.331.5.91-.161,1.293l-7.084,4.089A2.483,2.483,0,0,1,423.124,308.97Z" transform="translate(-271.189 -238.097)"/><path class="f" d="M430.065,312.979l-7.147-4.127c-.574-.332-.5-.911.161-1.293l7.082-4.089a2.489,2.489,0,0,1,2.239-.094l7.149,4.127c.574.332.5.911-.161,1.293l-7.084,4.089A2.489,2.489,0,0,1,430.065,312.979Z" transform="translate(-267.091 -235.731)"/><path class="f" d="M437.006,316.986l-7.147-4.127c-.574-.331-.5-.91.161-1.293l7.082-4.089a2.484,2.484,0,0,1,2.239-.092l7.149,4.127c.574.331.5.91-.161,1.293l-7.084,4.089A2.494,2.494,0,0,1,437.006,316.986Z" transform="translate(-262.993 -233.365)"/><path class="f" d="M443.947,320.994l-7.147-4.127c-.574-.332-.5-.911.161-1.293l7.082-4.09a2.494,2.494,0,0,1,2.239-.092l7.149,4.127c.574.331.5.91-.161,1.293l-7.084,4.089A2.489,2.489,0,0,1,443.947,320.994Z" transform="translate(-258.895 -230.999)"/><path class="f" d="M353.9,292.408l-21.052-12.154c-.574-.332-.5-.911.161-1.293l7.082-4.089a2.489,2.489,0,0,1,2.239-.094l21.052,12.155c.574.331.5.91-.161,1.293l-7.082,4.089A2.489,2.489,0,0,1,353.9,292.408Z" transform="translate(-320.267 -252.614)"/><path class="f" d="M439.171,341.64l-21.054-12.154c-.572-.332-.5-.911.162-1.293l7.082-4.09a2.494,2.494,0,0,1,2.239-.092l21.052,12.155c.574.331.5.91-.161,1.291l-7.084,4.09A2.49,2.49,0,0,1,439.171,341.64Z" transform="translate(-269.924 -223.549)"/><path class="f" d="M406.25,331.777,399.1,327.65c-.574-.332-.5-.911.161-1.293l8.437-4.871a2.484,2.484,0,0,1,2.239-.092l7.149,4.125c.574.332.5.911-.161,1.293l-8.439,4.871A2.489,2.489,0,0,1,406.25,331.777Z" transform="translate(-281.151 -225.095)"/><path class="f" d="M357.436,303.593,346,296.993c-.574-.332-.5-.91.161-1.293l8.437-4.871a2.484,2.484,0,0,1,2.239-.092l11.432,6.6c.574.331.5.91-.161,1.293l-8.437,4.871A2.494,2.494,0,0,1,357.436,303.593Z" transform="translate(-312.5 -243.194)"/><path class="f" d="M401.154,328.833l-11.432-6.6c-.574-.331-.5-.91.161-1.291l8.437-4.871a2.489,2.489,0,0,1,2.239-.094l11.432,6.6c.574.332.5.911-.161,1.293l-8.437,4.871A2.483,2.483,0,0,1,401.154,328.833Z" transform="translate(-286.689 -228.292)"/><path class="f" d="M367.45,309.375l-11.432-6.6c-.574-.332-.5-.911.161-1.293l8.437-4.871a2.484,2.484,0,0,1,2.239-.092l11.432,6.6c.574.332.5.911-.161,1.293l-8.437,4.871A2.489,2.489,0,0,1,367.45,309.375Z" transform="translate(-306.587 -239.781)"/><path class="f" d="M366.76,296.463l49.7,28.7a.681.681,0,0,1,0,1.29l-8.6,4.967a2.466,2.466,0,0,1-2.233,0l-49.7-28.7Z" transform="translate(-306.415 -239.681)"/><path class="f" d="M424.981,335.173l7.963,4.6c.471.272.412.746-.132,1.059l-3.451,1.993a2.035,2.035,0,0,1-1.835.076l-7.963-4.6c-.469-.272-.41-.747.132-1.061l3.451-1.993A2.039,2.039,0,0,1,424.981,335.173Z" transform="translate(-269.03 -216.935)"/><path class="f" d="M417.983,331.132l7.961,4.6c.471.272.412.746-.13,1.061l-3.453,1.993a2.039,2.039,0,0,1-1.835.075l-7.961-4.6c-.471-.272-.412-.746.132-1.059l3.451-1.993A2.035,2.035,0,0,1,417.983,331.132Z" transform="translate(-273.162 -219.321)"/><path class="f" d="M411.042,327.124l7.962,4.6c.471.272.412.746-.13,1.059l-3.453,1.993a2.04,2.04,0,0,1-1.835.076l-7.961-4.6c-.471-.272-.412-.746.132-1.061l3.451-1.993A2.044,2.044,0,0,1,411.042,327.124Z" transform="translate(-277.259 -221.687)"/><path class="f" d="M421.816,328.919l7.961,4.6c.471.272.412.747-.13,1.061l-3.453,1.993a2.039,2.039,0,0,1-1.835.075l-7.962-4.6c-.471-.272-.412-.746.132-1.059L419.981,329A2.04,2.04,0,0,1,421.816,328.919Z" transform="translate(-270.899 -220.627)"/></g><path class="a" d="M383.093,362.231a6.746,6.746,0,0,1-3.329-.781L324.589,329.6a2.8,2.8,0,0,1-1.583-2.416,3.571,3.571,0,0,1,2.061-2.92l36.526-21.087a8.232,8.232,0,0,1,7.516-.277l55.175,31.857a2.807,2.807,0,0,1,1.584,2.414,3.562,3.562,0,0,1-2.061,2.918l-36.528,21.089A8.549,8.549,0,0,1,383.093,362.231Zm-17.3-58.394a6.891,6.891,0,0,0-3.341.827l-36.528,21.089c-.751.433-1.2.967-1.2,1.427,0,.442.452.768.72.924l55.175,31.857h0a6.566,6.566,0,0,0,5.794-.277l36.53-21.089c.749-.434,1.2-.967,1.2-1.428,0-.441-.453-.767-.72-.922L368.25,304.387A5.04,5.04,0,0,0,365.8,303.837Z" transform="translate(-263.173 -230.726)"/><g transform="translate(95.353 83.103)"><path class="d" d="M352.9,319.287l5.407-3.031a2.221,2.221,0,0,1,1.959.094h0c.58.332.644.83.143,1.112L355,320.491a2.216,2.216,0,0,1-1.959-.094h0C352.461,320.065,352.4,319.567,352.9,319.287Z" transform="translate(-341.078 -305.59)"/><path class="d" d="M345.678,323.866l7.974-4.467a2.215,2.215,0,0,1,1.959.092h0c.58.334.644.83.143,1.112l-7.974,4.467a2.215,2.215,0,0,1-1.959-.092h0C345.241,324.643,345.177,324.147,345.678,323.866Z" transform="translate(-345.341 -303.735)"/><path class="d" d="M364.153,326.556l10.322-5.783a2.215,2.215,0,0,1,1.959.092h0c.581.332.644.83.143,1.112l-10.323,5.783a2.215,2.215,0,0,1-1.959-.092h0C363.714,327.335,363.65,326.837,364.153,326.556Z" transform="translate(-334.434 -302.924)"/><path class="d" d="M362.981,319.493l3.378-1.894a2.221,2.221,0,0,1,1.959.094h0c.58.332.644.83.143,1.112l-3.38,1.893a2.216,2.216,0,0,1-1.959-.094h0C362.542,320.271,362.478,319.773,362.981,319.493Z" transform="translate(-335.126 -304.797)"/><path class="d" d="M358.2,315.641l2.169-1.215a2.221,2.221,0,0,1,1.959.094h0c.58.332.644.83.143,1.112l-2.169,1.213a2.215,2.215,0,0,1-1.959-.092h0C357.765,316.42,357.7,315.922,358.2,315.641Z" transform="translate(-337.947 -306.67)"/><path class="d" d="M352.336,312.762l2.693-1.509a2.216,2.216,0,0,1,1.959.094h0c.58.332.644.83.143,1.11l-2.694,1.509a2.211,2.211,0,0,1-1.959-.094h0C351.9,313.54,351.833,313.044,352.336,312.762Z" transform="translate(-341.411 -308.544)"/><path class="d" d="M345.747,317.368l7.1-3.978a2.224,2.224,0,0,1,1.961.094h0c.579.332.644.83.142,1.112l-7.1,3.978a2.216,2.216,0,0,1-1.959-.094h0C345.31,318.148,345.246,317.65,345.747,317.368Z" transform="translate(-345.3 -307.281)"/><path class="d" d="M348.049,312.527l5.105-2.86a2.215,2.215,0,0,1,1.959.092h0c.58.332.644.83.143,1.112l-5.105,2.86a2.215,2.215,0,0,1-1.959-.092h0C347.612,313.3,347.548,312.808,348.049,312.527Z" transform="translate(-343.941 -309.48)"/><path class="d" d="M355.079,325.094l9.024-5.056a2.215,2.215,0,0,1,1.959.092h0c.58.334.644.83.142,1.112L357.18,326.3a2.216,2.216,0,0,1-1.959-.094h0C354.64,325.872,354.576,325.374,355.079,325.094Z" transform="translate(-339.792 -303.358)"/><path class="d" d="M357.984,328l15.727-8.811a2.216,2.216,0,0,1,1.959.094h0c.58.332.644.83.143,1.11L360.087,329.2a2.215,2.215,0,0,1-1.959-.092h0C357.547,328.776,357.483,328.278,357.984,328Z" transform="translate(-338.075 -303.86)"/><path class="d" d="M356.661,321.069l9.024-5.056a2.215,2.215,0,0,1,1.959.092h0c.581.334.644.83.143,1.112l-9.024,5.056a2.216,2.216,0,0,1-1.959-.094h0C356.224,321.847,356.16,321.349,356.661,321.069Z" transform="translate(-338.857 -305.734)"/><path class="d" d="M350.774,326.31l3.279-1.837a2.215,2.215,0,0,1,1.959.092h0c.581.332.644.83.143,1.112l-3.279,1.837a2.216,2.216,0,0,1-1.959-.094h0C350.337,327.088,350.273,326.59,350.774,326.31Z" transform="translate(-342.332 -300.739)"/><path class="d" d="M349.978,318.917l10.846-6.077a2.215,2.215,0,0,1,1.959.092h0c.581.332.644.83.143,1.112l-10.848,6.077a2.211,2.211,0,0,1-1.959-.094h0C349.539,319.695,349.475,319.2,349.978,318.917Z" transform="translate(-342.803 -307.607)"/></g></g><g transform="translate(271.741 174.553)"><g transform="translate(6.327 99.61)"><g transform="translate(16.557 97.875)"><path class="c" d="M321.709,252.383a22.139,22.139,0,0,0-2.866-1.371l.029,0-5.512-2.444.415.962a35.633,35.633,0,0,0-12.927-.137l.258-1.069L294.62,251.2l.038,0a22.244,22.244,0,0,0-2.425,1.183c-8.138,4.7-8.138,12.319,0,17.019s21.335,4.7,29.475,0S329.848,257.081,321.709,252.383Z" transform="translate(-286.129 -247.194)"/><path class="a" d="M309.766,257.238a15.262,15.262,0,0,1-13.812,0c-3.814-2.2-3.814-5.772,0-7.974a15.268,15.268,0,0,1,13.811,0C313.58,251.466,313.58,255.037,309.766,257.238Z" transform="translate(-282.018 -247.613)"/></g><g transform="translate(33.948 57.926)"><path class="a" d="M300.466,268.927h0a3.32,3.32,0,0,1-3.319-3.321v-41.97h6.64v41.97A3.321,3.321,0,0,1,300.466,268.927Z" transform="translate(-297.017 -221.82)"/><path class="a" d="M302.851,225.834a5.3,5.3,0,0,1-4.793,0c-1.323-.765-1.323-2,0-2.767a5.3,5.3,0,0,1,4.793,0C304.174,223.83,304.174,225.07,302.851,225.834Z" transform="translate(-297.065 -222.494)"/></g><path class="c" d="M300.233,240.187h0a2.691,2.691,0,0,1-2.691-2.691V198.042h5.383V237.5A2.691,2.691,0,0,1,300.233,240.187Z" transform="translate(-262.835 -179.004)"/><g transform="translate(55.435 34.226)"><path class="b" d="M323.568,212.5v-1.544l2.182-.316,2.443-1.829a1.644,1.644,0,0,1,1.609-.059l1.8,1.042,1.788-.259V211.1l-.008,0a.589.589,0,0,1-.41.471l-5.69,2.535a1.792,1.792,0,0,1-1.492-.054l-1.894-1.094a.552.552,0,0,1-.321-.46Z" transform="translate(-302.905 -207.014)"/><path class="a" d="M323.8,211.118l4.389-3.286a1.644,1.644,0,0,1,1.609-.059l3.276,1.891c.458.264.41.7-.1.929l-5.69,2.535a1.786,1.786,0,0,1-1.492-.056l-1.894-1.094C323.5,211.748,323.455,211.379,323.8,211.118Z" transform="translate(-302.905 -207.592)"/><g transform="translate(0 2.508)"><path class="c" d="M324.066,217.641a3.563,3.563,0,0,0,1.757-.434l6.823-3.939a.788.788,0,1,0-.789-1.365l-6.821,3.939a2.254,2.254,0,0,1-1.94,0l-11.339-6.568a.788.788,0,0,0-.787,1.365l11.339,6.567A3.547,3.547,0,0,0,324.066,217.641Z" transform="translate(-310.575 -209.168)"/></g></g><path class="i" d="M277.97,208.813l10.956-6.368-6.138-2.772-5.252,3.724Z" transform="translate(-274.646 -178.041)"/><path class="a" d="M347.887,207.39a14.613,14.613,0,0,1-1.843-1.148L322.7,189.134c-4.214-3.09-8.555-3.887-11.91-2.185-.086.045-.162.107-.246.154l-.025-.008L278.273,205.8l2.9.964,11.292,5.121,15.361,10.9,12.122,6.433.55.118c2.828-2.381,5.993-4.424,7.728-7.9,3-5.251,11.36-6.756,16.274-11.013.495.315.991.609,1.487.865C347,210.292,347.273,208.874,347.887,207.39Z" transform="translate(-274.211 -186.071)"/><path class="b" d="M342.455,194.625a2.151,2.151,0,0,0-1.323.461l0-.006-31.553,18.264,1.153,4.717,1.183-.565c-1.805,2.82-4.577,4.673-7.088,6.788l3.567.755,30.9-17.981c.142-.062.288-.115.428-.184a7.688,7.688,0,0,0,1.19-.757l.054-.032-.019,0c2.351-1.815,3.68-4.976,3.68-8.922v-.372A2.168,2.168,0,0,0,342.455,194.625Z" transform="translate(-258.537 -181.021)"/><g transform="translate(4.062 0.006)"><path class="j" d="M301.316,186.075a13.213,13.213,0,0,1,6.195,2.005A13.213,13.213,0,0,0,301.316,186.075Z" transform="translate(-264.669 -186.075)"/><path class="a" d="M329.289,217.351v-.371a2.169,2.169,0,0,0-4.337,0v.371c0,2.9-.921,5.029-2.529,5.843-1.816.919-4.577.243-7.386-1.815l-23.345-17.108c-3.593-2.634-7.273-3.583-10.36-2.758l19.282-11.187-22.342,12.962,2.9.964,11.292,5.121,15.361,10.9,12.122,6.433.55.118c2.828-2.382,5.993-4.424,7.728-7.9a9.178,9.178,0,0,1,1.059-1.454C329.285,217.43,329.289,217.392,329.289,217.351Z" transform="translate(-278.273 -183.565)"/></g><g transform="translate(0 18.353)"><path class="c" d="M321.444,224.339a14.072,14.072,0,0,1-8.127-3.062L289.97,204.17c-2.807-2.056-5.566-2.735-7.386-1.815-1.606.814-2.529,2.944-2.529,5.843a2.169,2.169,0,0,1-4.337,0c0-4.591,1.788-8.13,4.9-9.711,3.354-1.7,7.7-.9,11.91,2.184l23.347,17.109c2.807,2.058,5.568,2.734,7.384,1.815,1.608-.814,2.529-2.944,2.529-5.843v-.371a2.169,2.169,0,0,1,4.337,0v.371c0,4.591-1.788,8.13-4.9,9.711A8.29,8.29,0,0,1,321.444,224.339Z" transform="translate(-275.719 -197.611)"/></g></g><g transform="translate(3.312)"><path class="f" d="M298.048,238.736s-4.4-2.217-7.1,1.085-6.56,11.1-6.68,16.363,4.168,4.911,6.716,3.664,9.994-12.046,10.444-14.162-.531-4.978-1.247-5.536S298.048,238.736,298.048,238.736Z" transform="translate(-267.657 -55.798)"/><path class="a" d="M296.626,238.19l.2,4.556a2.584,2.584,0,0,1-1.287,2.37,5.066,5.066,0,0,1-3.392.526c-3.313-.531-3.609-1.477-3.844-6.032S296.626,238.19,296.626,238.19Z" transform="translate(-265.276 -56.311)"/><g transform="translate(0 80.82)"><path class="f" d="M287.928,233.229s-4.4-2.217-7.1,1.085-6.56,11.1-6.68,16.363,4.167,4.911,6.716,3.664,9.994-12.047,10.444-14.162-.531-4.978-1.247-5.538S287.928,233.229,287.928,233.229Z" transform="translate(-273.632 -139.869)"/><path class="a" d="M286.507,232.683l.2,4.555a2.581,2.581,0,0,1-1.288,2.37,5.068,5.068,0,0,1-3.391.528c-3.313-.533-3.609-1.479-3.846-6.034S286.507,232.683,286.507,232.683Z" transform="translate(-271.251 -140.382)"/><path class="c" d="M328.314,182.922c-1.3-21.174-22.932,3.116-22.932,3.116l-14.8,14.511-13.331,14.644a13.141,13.141,0,0,0-3.311,10.557l5.393,41.064a4.034,4.034,0,0,0,4.046,3.507,13.8,13.8,0,0,0,2-.175,5.017,5.017,0,0,0,4.456-5.323l-.986-38.406,28-16.877S329.615,204.1,328.314,182.922Z" transform="translate(-273.823 -174.256)"/></g><path class="c" d="M338.434,187.995c-1.3-21.174-22.932,3.116-22.932,3.116l-14.8,14.511-13.331,14.644a13.139,13.139,0,0,0-3.311,10.557l5.393,41.064a4.034,4.034,0,0,0,4.046,3.507,13.784,13.784,0,0,0,2-.175,5.017,5.017,0,0,0,4.456-5.323l-.986-38.406,28-16.877S339.735,209.169,338.434,187.995Z" transform="translate(-267.849 -90.442)"/><path class="a" d="M321.9,142.914c16.4,6.8,16.069,16.492,16.069,16.492s-3.211,35.539-2.115,59.272c.458,9.922-52.715,10.679-44.785-15.791,9.35-31.21,5.845-56.476,10.221-60.288S317.661,141.155,321.9,142.914Z" transform="translate(-264.116 -113.332)"/><path class="k" d="M319.613,150.6c-.857,3.329-5.22,5.083-9.744,3.919s-7.494-4.809-6.637-8.14,5.22-5.084,9.743-3.919S320.47,147.269,319.613,150.6Z" transform="translate(-256.548 -112.421)"/><path class="d" d="M312.958,155.953a12.029,12.029,0,0,1-2.993-.385c-4.935-1.271-8.165-5.35-7.2-9.094a6.275,6.275,0,0,1,3.963-4.176,11.5,11.5,0,0,1,12.484,3.216,5.929,5.929,0,0,1-2.511,9.749A10.046,10.046,0,0,1,312.958,155.953Zm-2.5-12.78a8.458,8.458,0,0,0-3.151.579,4.752,4.752,0,0,0-3.031,3.114c-.747,2.906,1.978,6.129,6.075,7.184a9.343,9.343,0,0,0,5.757-.242,4.748,4.748,0,0,0,3.03-3.112h0a4.741,4.741,0,0,0-1.148-4.191,9.33,9.33,0,0,0-4.924-2.993A10.4,10.4,0,0,0,310.463,143.173Z" transform="translate(-256.839 -112.713)"/><path class="k" d="M306.078,142.787a40.463,40.463,0,0,1-.142,5.854c-.089,1.633,5.632,3.16,7.109,1.681s.887-3.017,1.242-8.577S306.078,142.787,306.078,142.787Z" transform="translate(-254.865 -113.945)"/><path class="l" d="M314.288,140.919s-1.408,5.156-8.353,7.133l.107-4.685Z" transform="translate(-254.865 -113.118)"/><circle class="k" cx="12.623" cy="12.623" r="12.623" transform="translate(34.318 22.332) rotate(-59.496)"/><path class="l" d="M313.888,136.094s-6.95,2.977-11.762,3.011-3.752-4-3.752-4l14.285-2.064Z" transform="translate(-259.388 -117.767)"/><path class="m" d="M302.728,142.549s6.055-2.57,11.365-1.5a5.569,5.569,0,0,1,3.211,1.907,1.894,1.894,0,0,0,.97.7c.942.213,2.484-3.694,4.315-3.784s3.052,1.207,1.551,3.61-.994,5.092-.3,5.479,8.016-5.224,1.554-18.025-22.875-5.907-25.427-3.311c0,0-2.691,2.343-4.878.258C295.086,127.888,292.635,146.252,302.728,142.549Z" transform="translate(-261.425 -123.439)"/><path class="k" d="M322.277,170.765v9.6A3.911,3.911,0,0,1,321,183.259l-19.727,17.984,2.242,3.429,26.051-18.894a5.3,5.3,0,0,0,2.158-3.733l1.761-16.748Z" transform="translate(-257.618 -98.726)"/><path class="a" d="M322.825,149.39s5.985,9,8.214,32.692c0,0-10.223,3.3-16.025,1.428S322.825,149.39,322.825,149.39Z" transform="translate(-250.355 -108.117)"/><path class="b" d="M314.713,156.545s-2.343,12.54-2.476,18.433a3.763,3.763,0,0,0,2.476,3.634h0Z" transform="translate(-251.146 -103.893)"/></g><g transform="translate(3.154 95.348)"><path class="f" d="M332.331,202.128l-4.361-.576L299.825,185.3a3.915,3.915,0,0,0-3.519.146l-19.943,11.51-2.637-.347v2.624h0a1.024,1.024,0,0,0,.6.924l31.9,18.415a3.913,3.913,0,0,0,3.521-.145l21.718-12.537a1.42,1.42,0,0,0,.862-1.183h0Z" transform="translate(-273.724 -182.471)"/><path class="b" d="M311.183,189.722l-2-1.153H287.2l-10.837,6.252-2.637-.347V197.1h0a1.024,1.024,0,0,0,.6.924l31.9,18.415a3.3,3.3,0,0,0,1.816.34Z" transform="translate(-273.724 -180.334)"/><path class="a" d="M274.9,192.436l-1.171-.154v2.624h0a1.024,1.024,0,0,0,.6.924l.563.324Z" transform="translate(-273.724 -178.142)"/><path class="h" d="M294.365,207.912a4.081,4.081,0,0,0,2.992-.186v-4.464h-2.992Z" transform="translate(-261.538 -171.66)"/><path class="d" d="M306.23,216.872l-31.9-18.415c-.9-.522-.789-1.431.253-2.033l21.72-12.535a3.915,3.915,0,0,1,3.52-.146l31.9,18.415c.9.522.789,1.431-.253,2.033l-21.718,12.535A3.909,3.909,0,0,1,306.23,216.872Z" transform="translate(-273.724 -183.391)"/><path class="c" d="M303.858,211.583l-26.523-15.312c-.749-.434-.655-1.19.212-1.691l11.638-6.544a3.251,3.251,0,0,1,2.926-.121l26.523,15.312c.749.433.655,1.19-.21,1.691l-11.64,6.544A3.256,3.256,0,0,1,303.858,211.583Z" transform="translate(-271.891 -180.894)"/></g><path class="k" d="M288.887,183.735l-.329,2.2a16.248,16.248,0,0,0,.143,5.643l.393,1.939a2.724,2.724,0,0,0,2.185,2.142h0a1.5,1.5,0,0,0,1.764-1.312l.526-4.7s1.2,1.576,1.786,1.576-.651-4.711-1.966-7.378S288.887,183.735,288.887,183.735Z" transform="translate(-261.919 -88.494)"/><path class="k" d="M300.281,163.8l-3.423,6.773a13.279,13.279,0,0,0-1.4,5.142l-1.487,23.17-4.5-.107-2.044-26.02a9.517,9.517,0,0,1,.116-2.4l2.335-13.2Z" transform="translate(-262.499 -103.533)"/><g transform="translate(0 81.551)"><path class="f" d="M306.114,223.762l-2.675-3.491-28.124-16.284a3.913,3.913,0,0,1-1.63-3.124l.024-23.027-1.617-2.11,1.52-.879,0,0a1.025,1.025,0,0,1,1.1.064l31.875,18.455a3.91,3.91,0,0,1,1.63,3.124l-.027,25.077a1.423,1.423,0,0,1-.6,1.336h0Z" transform="translate(-271.534 -174.716)"/><path class="b" d="M286.664,210.559l-2-1.156L273.7,190.349l.011-12.513-1.617-2.11,1.52-.879,0,0a1.025,1.025,0,0,1,1.1.064l31.875,18.455a3.3,3.3,0,0,1,1.2,1.4Z" transform="translate(-271.534 -174.716)"/><path class="a" d="M272.808,176.663l-.717-.937,1.52-.879,0,0a1.025,1.025,0,0,1,1.1.064l.561.324Z" transform="translate(-271.534 -174.716)"/><path class="h" d="M295.181,186.571a4.085,4.085,0,0,1,1.331,2.685l-3.114,1.8-1.493-2.592Z" transform="translate(-259.836 -167.717)"/><path class="a" d="M305.277,193.919,273.4,175.465c-.9-.523-1.635.029-1.637,1.233l-.027,25.077a3.913,3.913,0,0,0,1.63,3.124l31.875,18.455c.9.522,1.633-.03,1.635-1.234l.027-25.077A3.915,3.915,0,0,0,305.277,193.919Z" transform="translate(-271.741 -174.39)"/></g><path class="k" d="M306.585,191.328l-.511,1.058a7.092,7.092,0,0,1-2.665,2.953l-3.165,1.951a3.154,3.154,0,0,1-3.233.075l-.107-.065a1.905,1.905,0,0,1-.27-2.926l3.31-3.4s-1.859,1.425-2.381.851c-.382-.42,1.8-2.471,3.48-2.538a6.611,6.611,0,0,0,3.3-1.385Z" transform="translate(-257.375 -85.382)"/><path class="a" d="M303.727,141.81s-12.13,13.2-17.022,25.3a24.764,24.764,0,0,0,14.3,10.4C311.157,180.45,303.727,141.81,303.727,141.81Z" transform="translate(-262.906 -112.592)"/><path class="b" d="M295.25,170.819l1.967-18.989-4.633,17.792A26.467,26.467,0,0,0,295.25,170.819Z" transform="translate(-259.436 -106.677)"/><path class="d" d="M304.33,140.468l-3.259-.9a7.86,7.86,0,0,0,3.826,3.071c2.273.623,2.626-1.3,2.626-1.3Z" transform="translate(-254.425 -113.913)"/></g><path class="a" d="M471.381,293.712a7.011,7.011,0,0,1-3.505-.94l-48.669-28.178a4.91,4.91,0,0,1-.083-8.446l13.466-8.152a.926.926,0,1,1,.959,1.584l-13.464,8.152a3.056,3.056,0,0,0,.051,5.259L468.8,291.169a5.152,5.152,0,0,0,5.267-.067l16.758-10.24a.927.927,0,1,1,.967,1.581l-16.759,10.24A7,7,0,0,1,471.381,293.712Z" transform="translate(85.616 124.572)"/><g transform="translate(389.635 201.1)"><path class="n" d="M383.16,158.864,351.23,140.43a1.636,1.636,0,0,0-1.651-.134l0-.021-3.1,1.789,2.177.8v23.253a6.156,6.156,0,0,0,2.568,4.91l30.52,17.618v2.729l3.128-1.8-.018-.006a2.273,2.273,0,0,0,.868-2.047V163.772A6.152,6.152,0,0,0,383.16,158.864Z" transform="translate(-345.507 -140.131)"/><path class="m" d="M380.369,190.6l-31.93-18.434a6.155,6.155,0,0,1-2.568-4.91V143.518c0-1.893,1.15-2.761,2.568-1.942l31.93,18.434a6.152,6.152,0,0,1,2.568,4.908v23.743C382.937,190.552,381.787,191.422,380.369,190.6Z" transform="translate(-345.87 -139.46)"/><g transform="translate(8.997 20.502)"><path class="d" d="M355.837,157.047c0,1.374-.965,1.931-2.155,1.244a4.762,4.762,0,0,1-2.155-3.731c0-1.374.965-1.931,2.155-1.244A4.762,4.762,0,0,1,355.837,157.047Z" transform="translate(-351.527 -153.022)"/><path class="d" d="M359.939,159.416c0,1.374-.964,1.931-2.153,1.245a4.761,4.761,0,0,1-2.155-3.733c0-1.374.964-1.931,2.155-1.244A4.763,4.763,0,0,1,359.939,159.416Z" transform="translate(-349.104 -151.623)"/><path class="d" d="M364.043,161.786c0,1.374-.965,1.931-2.155,1.244a4.763,4.763,0,0,1-2.153-3.731c0-1.374.964-1.931,2.153-1.244A4.76,4.76,0,0,1,364.043,161.786Z" transform="translate(-346.681 -150.224)"/></g></g><g transform="translate(371.463 171.248)"><path class="a" d="M371.733,140.094,339.8,121.659a1.636,1.636,0,0,0-1.651-.132l0-.021-3.1,1.789,2.176.8v23.253a6.149,6.149,0,0,0,2.57,4.908l30.518,17.62V172.6l3.13-1.8-.018-.006a2.28,2.28,0,0,0,.868-2.048V145A6.151,6.151,0,0,0,371.733,140.094Z" transform="translate(-334.081 -121.36)"/><path class="c" d="M368.943,171.834,337.012,153.4a6.152,6.152,0,0,1-2.568-4.908V124.749c0-1.893,1.15-2.763,2.568-1.943l31.93,18.436a6.153,6.153,0,0,1,2.57,4.908V169.89C371.513,171.783,370.361,172.653,368.943,171.834Z" transform="translate(-334.444 -120.689)"/><g transform="translate(8.998 20.502)"><path class="d" d="M344.41,138.277c0,1.374-.964,1.931-2.155,1.244a4.761,4.761,0,0,1-2.153-3.731c0-1.374.964-1.931,2.153-1.244A4.758,4.758,0,0,1,344.41,138.277Z" transform="translate(-340.102 -134.252)"/><path class="d" d="M348.514,140.646c0,1.374-.965,1.931-2.155,1.244a4.761,4.761,0,0,1-2.153-3.731c0-1.374.964-1.931,2.153-1.244A4.762,4.762,0,0,1,348.514,140.646Z" transform="translate(-337.679 -132.853)"/><path class="d" d="M352.617,143.017c0,1.372-.964,1.931-2.153,1.244a4.765,4.765,0,0,1-2.155-3.733c0-1.374.965-1.931,2.155-1.244A4.763,4.763,0,0,1,352.617,143.017Z" transform="translate(-335.257 -131.455)"/></g></g></g></svg>