<svg xmlns="http://www.w3.org/2000/svg" width="325" height="67.802" viewBox="0 0 325 67.802"><defs><style>.a{fill:#a3a3a3;stroke:#a3a3a3;font-size:11px;font-family:SlimJoe, Slim Joe;}.b,.d{fill:#5793ce;}.b{font-size:28px;font-family:WorkSans-SemiBold, Work Sans;font-weight:600;letter-spacing:0.025em;}.c{fill:#000;}.e{fill:#285ea0;}.f{fill:#fff;}</style></defs><g transform="translate(-37 -34)"><text class="a" transform="translate(101.5 94.802)"><tspan x="0" y="0">Technology That Inspires</tspan></text><text class="b" transform="translate(101 72)"><tspan class="c" x="0" y="0">INTELLIGIA</tspan><tspan class="d" y="0">CLOUD</tspan></text><g transform="translate(-122.684 -141.479)"><path d="M253.436,127.079a12.313,12.313,0,0,0-6.976-2.151h-.089a1.225,1.225,0,0,0,.008,2.45h.081a9.884,9.884,0,0,1,9.217,6.224,1.225,1.225,0,1,0,2.272-.915A12.368,12.368,0,0,0,253.436,127.079Z" transform="translate(-60.066 68.349)"/><path d="M337.266,216.379a1.225,1.225,0,1,0,.867-.359A1.233,1.233,0,0,0,337.266,216.379Z" transform="translate(-140.58 -11.585)"/><path class="d" d="M.33,34.545c0,2.409,1.726,8.451,5.6,4.819.156-.146,2.974-4.755,1.866-12.769-.017-.119-1.632-9.224,4.578-15.9.048-.051,10.469-10.462,23.37,0,.054.044,8.8,8.262,2.409,20.961-.111.22-3.272,4.6-7.469,6.264-.065.026-12.16,2.257-13.492,9.878-.012.069,1.278,4.126,3.614,3.614.12-.026,7.264-1.031,11.564.482s9.339,1.983,7.478-3.9-.732-1.878-.732-1.878,1.764.091,1.948-.277-.2-.5,0-1.769c.009-.056,1.36.241,1.666-.6s.233-.189,0-2.409c0-.018-.011-.467.964-.241a26.548,26.548,0,0,0,2.861.666c1.039.13,1.417.216,1.235-2.111s-.969-6.086-.964-7.469-.326-2.967.964-9.155c.055-.146,4.042-15.193-13.109-24.221-.1-.055-17.052-7.8-30.5,7.356C4.145,5.92-1.886,12.9.812,27.317.845,27.492.33,32.135.33,34.545Z" transform="translate(163.567 178.986)"/><path class="e" d="M139.529,81.682s11.172,10.552,4.864,23.086c-.11.218-3.23,4.541-7.372,6.183-.064.025-12,2.228-13.317,9.75-.012.068,1.1,4.554,5.1,3.317.07-.015-1.541-2.917,3.71-6.983,3.653-2.829,10.729-2.619,14.985-11.057C153.714,87.574,139.529,81.682,139.529,81.682Z" transform="translate(57.053 106.298)"/><path class="f" d="M3.974,46.229a4,4,0,0,1-2.158-5.863l.136-.226A4.9,4.9,0,0,1,.705,33.7l1.673-2.77.095-.157A13.908,13.908,0,0,0,4.1,20.558,16.939,16.939,0,0,1,6.243,8.035a1.2,1.2,0,0,1,.181-.226,16.821,16.821,0,0,1,8.343-6.685,1.189,1.189,0,0,1,.318-.168A16.985,16.985,0,0,1,29.028,2.178l.107.061a16.811,16.811,0,0,1,6.352,22.71,1.193,1.193,0,0,1-.105.246,16.86,16.86,0,0,1-10.341,8.013q-.472.128-.931.288A13.919,13.919,0,0,0,17.3,39.38l-.092.159-1.624,2.8a4.952,4.952,0,0,1-5.556,2.29,4.883,4.883,0,0,1-.745-.194l-.1.171a4.041,4.041,0,0,1-5.209,1.625Zm8.274-4.692S18.02,32,24.119,30.976q.337-.116.69-.224A14.538,14.538,0,0,0,33.255,24.1a14.368,14.368,0,0,0,1.811-9.352,1.176,1.176,0,0,1-.082-.273A14.476,14.476,0,0,0,28.247,4.54l-.091-.055A14.5,14.5,0,0,0,6.513,20.351C8.87,26.118,3.1,36.092,3.1,36.092l8.091,4.835Z" transform="translate(167.303 185.198)"/><path d="M15.006,19.6H12.618V6.615h.776A3.229,3.229,0,0,0,16.62,3.389V3.226a3.226,3.226,0,0,0-6.451,0v.939H7.228V3.226A3.229,3.229,0,0,0,4,0H3.8A3.229,3.229,0,0,0,.569,3.226v.163A3.229,3.229,0,0,0,3.8,6.615h.983V19.6H2.419L0,19.55v4.628a5.1,5.1,0,0,0,4.533,5.066v.277a4.165,4.165,0,1,0,8.33,0v-.273a5.1,5.1,0,0,0,4.561-5.069V19.654ZM12.618,3.226a.776.776,0,0,1,1.552,0v.163a.777.777,0,0,1-.776.776h-.776Zm-8.823.939a.777.777,0,0,1-.776-.776V3.226a.777.777,0,0,1,.776-.776H4a.777.777,0,0,1,.776.776v.939Zm3.433,2.45h2.94V19.6H7.228V6.615Zm3.185,22.907a1.715,1.715,0,1,1-3.43,0v-.245h3.43Zm4.561-5.343a2.651,2.651,0,0,1-2.648,2.648H5.1A2.651,2.651,0,0,1,2.45,24.178V22.049H14.974Z" transform="translate(176.527 205.397) rotate(30)"/></g></g></svg>