<svg xmlns="http://www.w3.org/2000/svg" width="60" height="54" viewBox="0 0 60 54"><defs><style>.a,.e{fill:none;}.a{stroke:#fff;stroke-width:2px;}.b{fill:#fff;}.c{fill:#de432a;}.d{stroke:none;}</style></defs><g transform="translate(-957 -5657)"><g class="a" transform="translate(957 5660)"><rect class="d" width="60" height="51"/><rect class="e" x="1" y="1" width="58" height="49"/></g><path class="b" d="M999.682,4689a.669.669,0,0,1-.681-.655v-19.689a.668.668,0,0,1,.681-.655h28.637a.669.669,0,0,1,.681.655v19.689a.67.67,0,0,1-.681.655Zm10.092-10.1-9.131,8.787h26.714l-9.132-8.787-3.744,3.6a.7.7,0,0,1-.964,0l-4.309-4.147Zm17.862,7.2v-16.258l-8.538,8.218.092-.089Zm-27.273,0,8.447-8.129-8.447-8.129v-.53h1.378l12.259,11.8,12.259-11.8h-25.9Z" transform="translate(-27 1007)"/><rect class="c" width="15" height="22" transform="translate(993 5657)"/></g></svg>