<svg xmlns="http://www.w3.org/2000/svg" width="927.337" height="1206.493" viewBox="0 0 927.337 1206.493"><defs><style>.a{opacity:0.04;}.b{fill:#5793ce;}.c{fill:#285ea0;}.d{fill:#fff;}</style></defs><g class="a"><path d="M327.059,163.2A219.1,219.1,0,0,1,451.2,124.928c.527,0,1.063,0,1.591,0a21.8,21.8,0,0,1-.15,43.6h-.154c-.434,0-.859,0-1.291,0A175.881,175.881,0,0,0,287.173,279.27a21.8,21.8,0,1,1-40.434-16.289A220.089,220.089,0,0,1,327.059,163.2Z" transform="translate(0.866 191.765)"/><path d="M374.115,222.409a21.805,21.805,0,1,1-15.433-6.389A21.933,21.933,0,0,1,374.115,222.409Z" transform="translate(-105.183 299.232)"/><path class="b" d="M852.494,673.587c0,42.871-30.719,150.385-99.691,85.742-2.772-2.6-52.928-84.619-33.209-227.216.294-2.122,29.047-164.143-81.455-282.948-.85-.914-186.289-186.172-415.848,0-.969.786-156.6,147.014-42.871,372.978,1.974,3.923,58.221,81.873,132.9,111.464,1.16.46,216.386,40.161,240.077,175.771.215,1.23-22.74,73.422-64.306,64.306-2.135-.468-129.264-18.345-205.781,8.574s-166.183,35.28-133.07-69.467,13.032-33.423,13.032-33.423-31.391,1.623-34.669-4.934,3.562-8.908,0-31.473c-.158-1-24.195,4.294-29.637-10.751s-4.147-3.361,0-42.871c.034-.319.19-8.315-17.148-4.287S48.387,794.584,29.9,796.9,4.7,800.744,7.936,759.329s17.246-108.3,17.149-132.9,5.8-52.793-17.149-162.91C6.954,460.925-63.994,193.172,241.2,32.527c1.844-.971,303.421-138.709,542.7,130.9.716.806,108.025,124.961,60.019,381.552C843.336,548.1,852.494,630.717,852.494,673.587Z" transform="translate(-0.118 3.507)"/><path class="c" d="M293.5,81.682S94.7,269.439,206.955,492.474c1.949,3.872,57.467,80.812,131.179,110.021,1.145.454,213.582,39.641,236.967,173.494.212,1.214-19.487,81.033-90.678,59.028-1.239-.272,27.417-51.9-66.014-124.261-65-50.336-190.923-46.6-266.646-196.748C41.094,186.528,293.5,81.682,293.5,81.682Z" transform="translate(-22.725 140.747)"/><path class="d" d="M70.711,6.809A71.23,71.23,0,0,0,32.317,111.133l2.426,4.017A87.151,87.151,0,0,0,12.551,229.808L42.313,279.1,44,281.889C76.55,335.8,86.849,400.335,73,463.6a301.422,301.422,0,0,0,38.1,222.843,21.292,21.292,0,0,0,3.218,4.028A299.31,299.31,0,0,0,262.762,809.432a21.156,21.156,0,0,0,5.658,2.991c82.416,28.706,172.849,20.773,248.114-21.764.632-.358,1.269-.721,1.9-1.083a299.148,299.148,0,0,0,113.033-404.11,21.235,21.235,0,0,0-1.871-4.377A300.009,300.009,0,0,0,445.587,238.51q-8.408-2.271-16.573-5.121c-51.371-21.026-93.835-57.534-121.2-104.706l-1.636-2.822-28.891-49.8a88.122,88.122,0,0,0-98.866-40.75,86.883,86.883,0,0,0-13.262,3.452l-1.761-3.035A71.9,71.9,0,0,0,70.711,6.809ZM217.945,90.3s102.7,169.729,211.239,187.93q6,2.063,12.271,3.986a258.69,258.69,0,0,1,150.3,118.426,255.661,255.661,0,0,1,32.224,166.416,20.941,20.941,0,0,0-1.453,4.856A257.593,257.593,0,0,1,502.639,748.636c-.543.327-1.074.651-1.614.974A258.1,258.1,0,0,1,115.894,467.288c41.937-102.624-60.807-280.1-60.807-280.1l143.97-86.035Z" transform="translate(791.779 1002.36) rotate(180)"/><path d="M267.027,250.666h-42.5v231.05h13.8a57.463,57.463,0,0,1,57.4,57.4v2.908a57.4,57.4,0,0,1-114.8,0V525.309H128.621v16.712a57.461,57.461,0,0,1-57.4,57.4H67.531a57.461,57.461,0,0,1-57.4-57.4v-2.908a57.461,57.461,0,0,1,57.4-57.4h17.5V250.668H43.048L0,251.544v-82.36A90.834,90.834,0,0,1,80.664,79.04V74.112a74.11,74.11,0,1,1,148.219,0v4.865a90.838,90.838,0,0,1,81.157,90.207v80.507Zm-42.5,291.355a13.806,13.806,0,0,0,27.611,0v-2.908a13.822,13.822,0,0,0-13.807-13.8h-13.8Zm-157-16.712a13.82,13.82,0,0,0-13.8,13.8v2.908a13.82,13.82,0,0,0,13.8,13.8h3.693a13.82,13.82,0,0,0,13.8-13.8V525.309Zm61.092-43.593h52.312V250.668H128.621V481.716ZM185.293,74.11a30.517,30.517,0,1,0-61.033,0v4.36h61.033Zm81.157,95.072a47.17,47.17,0,0,0-47.118-47.118H90.715A47.172,47.172,0,0,0,43.6,169.182v37.891H266.45Z" transform="translate(927.337 1051.472) rotate(150)"/></g></svg>