<svg xmlns="http://www.w3.org/2000/svg" width="601.337" height="902.012" viewBox="0 0 601.337 902.012"><defs><style>.a{fill:#fff;}</style></defs><g transform="translate(0 0)"><path class="a" d="M413.731,83c.727,0,1.459,0,2.189.008A300.858,300.858,0,0,1,641.452,187.738a21.024,21.024,0,1,1-31.837,27.468,258.818,258.818,0,0,0-193.992-90.148c-.633,0-1.255-.008-1.883-.008A258.667,258.667,0,0,0,225.7,561.279C303.918,645.3,311.764,727.1,311.6,839.593l200.611-3.444s.195-205.07,87.969-273.163a257,257,0,0,0,72.1-186.5,21.023,21.023,0,1,1,42.031-1.142c2.21,81.288-27.561,158.276-83.83,216.789-43.347,45.069-67.217,105.031-67.217,168.838v60.842a87.614,87.614,0,0,1-77.8,86.952v4.754a71.475,71.475,0,1,1-142.95,0v-4.693a87.617,87.617,0,0,1-78.271-87.014V760.982c0-62.97-24.544-123.64-69.107-170.828A300.711,300.711,0,0,1,413.731,83Z" transform="translate(-113.089 -82.998)"/></g></svg>