<svg xmlns="http://www.w3.org/2000/svg" width="33.791" height="50.695" viewBox="0 0 33.791 50.695"><defs><style>.a{fill:#fff;}</style></defs><g transform="translate(0 0)"><path class="a" d="M129.984,83h.123a16.905,16.905,0,0,1,12.674,5.886,1.182,1.182,0,1,1-1.789,1.544,14.543,14.543,0,0,0-10.9-5.067h-.106a14.538,14.538,0,0,0-10.567,24.517c4.4,4.722,4.836,9.319,4.827,15.642l11.273-.194s.011-11.525,4.943-15.352a14.445,14.445,0,0,0,4.052-10.482,1.181,1.181,0,1,1,2.362-.064,16.79,16.79,0,0,1-4.711,12.184,13.6,13.6,0,0,0-3.777,9.489v3.419a4.924,4.924,0,0,1-4.372,4.887v.267a4.016,4.016,0,1,1-8.033,0v-.264a4.924,4.924,0,0,1-4.4-4.89V121.1a13.968,13.968,0,0,0-3.883-9.6A16.9,16.9,0,0,1,129.984,83Z" transform="translate(-113.089 -82.998)"/></g></svg>