<svg xmlns="http://www.w3.org/2000/svg" width="33.794" height="50.691" viewBox="0 0 33.794 50.691"><defs><style>.a{fill:#fff;}</style></defs><g transform="translate(0 0)"><path class="a" d="M129.985,133.689h.123a16.908,16.908,0,0,0,12.674-5.886,1.182,1.182,0,1,0-1.789-1.544,14.545,14.545,0,0,1-10.9,5.066h-.106a14.537,14.537,0,0,1-10.567-24.515c4.4-4.722,4.837-9.319,4.827-15.641l11.274.194s.011,11.524,4.944,15.351a14.443,14.443,0,0,1,4.052,10.481,1.181,1.181,0,1,0,2.362.064,16.787,16.787,0,0,0-4.711-12.183,13.6,13.6,0,0,1-3.777-9.488V92.169a4.924,4.924,0,0,0-4.372-4.887v-.267a4.017,4.017,0,1,0-8.033,0v.264a4.924,4.924,0,0,0-4.4,4.89v3.419a13.966,13.966,0,0,1-3.884,9.6,16.9,16.9,0,0,0,12.284,28.5Z" transform="translate(-113.089 -82.998)"/></g></svg>