<svg xmlns="http://www.w3.org/2000/svg" width="601.293" height="902.081" viewBox="0 0 601.293 902.081"><defs><style>.a{fill:#fff;}</style></defs><g transform="translate(0 0)"><path class="a" d="M413.709,985.079c.728,0,1.459,0,2.189-.009A300.819,300.819,0,0,0,641.413,880.33a21.024,21.024,0,1,0-31.835-27.47A258.782,258.782,0,0,1,415.6,943.015c-.633,0-1.255.008-1.883.008A258.694,258.694,0,0,1,225.691,506.762c78.213-84.031,86.059-165.833,85.893-278.335l200.6,3.444s.195,205.085,87.962,273.183a257.035,257.035,0,0,1,72.1,186.511,21.021,21.021,0,1,0,42.027,1.142c2.209-81.294-27.559-158.288-83.824-216.805-43.343-45.072-67.212-105.038-67.212-168.85V246.2a87.615,87.615,0,0,0-77.791-86.959v-4.754a71.47,71.47,0,1,0-142.939,0v4.693a87.618,87.618,0,0,0-78.265,87.02v60.841c0,62.975-24.542,123.65-69.1,170.842A300.733,300.733,0,0,0,413.709,985.079Z" transform="translate(-113.089 -82.998)"/></g></svg>