<svg xmlns="http://www.w3.org/2000/svg" width="214.994" height="198.005" viewBox="0 0 214.994 198.005"><defs><style>.a{fill:#fff;opacity:0.078;}</style></defs><path class="a" d="M1335.9,4602.789a3.228,3.228,0,0,0-3.473-.5l-208.567,96.432a3.191,3.191,0,0,0-.062,5.771l59.024,28.825a3.227,3.227,0,0,0,3.34-.31l57.388-42.682-45.052,46.114a3.189,3.189,0,0,0-.9,2.474l4.486,58.131a3.2,3.2,0,0,0,2.2,2.793,3.253,3.253,0,0,0,1,.159,3.22,3.22,0,0,0,2.433-1.108l31.328-36.125,38.728,18.414a3.218,3.218,0,0,0,4.452-1.928l54.618-173.1A3.188,3.188,0,0,0,1335.9,4602.789Z" transform="translate(-1122.002 -4601.995)"/></svg>