<svg xmlns="http://www.w3.org/2000/svg" width="62.2" height="47.62" viewBox="0 0 62.2 47.62"><defs><style>.a{fill:#fff;}</style></defs><g transform="translate(0 -59.985)"><g transform="translate(0 59.985)"><path class="a" d="M59.759,97.433H58.245a3.608,3.608,0,0,0,.484-1.808V63.616A3.635,3.635,0,0,0,55.1,59.985H46.536a.912.912,0,1,0,0,1.823H55.1a1.81,1.81,0,0,1,1.808,1.808V95.625A1.81,1.81,0,0,1,55.1,97.433H7.1a1.81,1.81,0,0,1-1.808-1.808V63.616A1.81,1.81,0,0,1,7.1,61.808H42.281a.912.912,0,0,0,0-1.823H7.1a3.635,3.635,0,0,0-3.631,3.631V95.625a3.607,3.607,0,0,0,.484,1.808H2.441A2.443,2.443,0,0,0,0,99.874,7.74,7.74,0,0,0,7.731,107.6H11.7a.912.912,0,1,0,0-1.823H7.731a5.914,5.914,0,0,1-5.908-5.908.618.618,0,0,1,.618-.618H24.6v.887a2.721,2.721,0,0,0,2.718,2.718h7.566a2.721,2.721,0,0,0,2.718-2.718v-.887H59.759a.618.618,0,0,1,.618.618,5.915,5.915,0,0,1-5.908,5.908H15.908a.912.912,0,1,0,0,1.823H54.469A7.74,7.74,0,0,0,62.2,99.874a2.443,2.443,0,0,0-2.441-2.441Zm-23.982,2.71a.9.9,0,0,1-.895.895H27.317a.9.9,0,0,1-.895-.895v-.887h9.355v.887Z" transform="translate(0 -59.985)"/><circle class="a" cx="0.912" cy="0.912" r="0.912" transform="translate(12.524 6.824)"/><circle class="a" cx="0.912" cy="0.912" r="0.912" transform="translate(16.136 6.824)"/><circle class="a" cx="0.912" cy="0.912" r="0.912" transform="translate(19.749 6.824)"/><path class="a" d="M60.755,89.2v28.774a1.935,1.935,0,0,0,1.932,1.933h43.567a1.935,1.935,0,0,0,1.932-1.933V89.2a1.935,1.935,0,0,0-1.932-1.932H62.687A1.935,1.935,0,0,0,60.755,89.2Zm45.609,28.774a.11.11,0,0,1-.109.11H62.688a.11.11,0,0,1-.109-.11V96.108h12.4a12.093,12.093,0,1,0,18.988,0h12.4ZM84.471,93.32a10.27,10.27,0,1,1-10.27,10.27,10.281,10.281,0,0,1,10.27-10.27Zm21.784-4.226a.11.11,0,0,1,.109.11v5.082H92.187a12.069,12.069,0,0,0-15.431,0H62.578V89.2a.11.11,0,0,1,.109-.11Z" transform="translate(-53.371 -83.954)"/><path class="a" d="M210.773,162.508a5.609,5.609,0,0,1,9.5,3.431l-.306-.4a.912.912,0,0,0-1.452,1.1l1.836,2.416a.912.912,0,0,0,1.452,0l1.836-2.416a.912.912,0,0,0-1.452-1.1l-.11.144A7.432,7.432,0,0,0,209.5,161.2a.912.912,0,0,0,1.274,1.3Z" transform="translate(-183.796 -147.044)"/><path class="a" d="M191.582,209.369a7.392,7.392,0,0,0,5.193-2.115.911.911,0,1,0-1.274-1.3,5.609,5.609,0,0,1-9.5-3.431l.306.4a.912.912,0,0,0,1.452-1.1l-1.836-2.416a.912.912,0,0,0-1.452,0l-1.836,2.415a.912.912,0,0,0,1.452,1.1l.109-.144A7.442,7.442,0,0,0,191.582,209.369Z" transform="translate(-160.277 -182.143)"/></g></g></svg>